<?xml version="1.0" encoding="UTF-8" standalone="no"?>
<!DOCTYPE svg PUBLIC "-//W3C//DTD SVG 1.1//EN"
 "http://www.w3.org/Graphics/SVG/1.1/DTD/svg11.dtd">
<!-- Generated by graphviz version 2.44.1 (0)
 -->
<!-- Pages: 1 -->
<svg width="334pt" height="255pt"
 viewBox="0.00 0.00 334.00 255.00" xmlns="http://www.w3.org/2000/svg" xmlns:xlink="http://www.w3.org/1999/xlink">
<g id="graph0" class="graph" transform="scale(1 1) rotate(0) translate(4 251)">
<polygon fill="white" stroke="transparent" points="-4,4 -4,-251 330,-251 330,4 -4,4"/>
<!-- 47 -->
<g id="node1" class="node">
<title>47</title>
<g id="a_node1"><a xlink:href="/api/cfg/0x8304df0" xlink:title="Click to navigate to function 0x8304df0">
<path fill="none" stroke="black" d="M12,-96.5C12,-96.5 314,-96.5 314,-96.5 320,-96.5 326,-102.5 326,-108.5 326,-108.5 326,-234.5 326,-234.5 326,-240.5 320,-246.5 314,-246.5 314,-246.5 12,-246.5 12,-246.5 6,-246.5 0,-240.5 0,-234.5 0,-234.5 0,-108.5 0,-108.5 0,-102.5 6,-96.5 12,-96.5"/>
<text text-anchor="start" x="95" y="-232.6" font-family="monospace" font-size="8.00">0x804cbd0</text>
<text text-anchor="start" x="147" y="-232.6" font-family="monospace" font-size="8.00">(0x804cbd0)</text>
<text text-anchor="start" x="209" y="-233.6" font-family="monospace" font-weight="bold" font-size="8.00">main</text>
<polyline fill="none" stroke="black" points="0,-223.5 326,-223.5 "/>
<text text-anchor="start" x="11" y="-209.6" font-family="monospace" font-size="8.00">0x0804cbd0: </text>
<text text-anchor="start" x="79" y="-209.6" font-family="monospace" font-size="8.00">push</text>
<text text-anchor="start" x="105" y="-209.6" font-family="monospace" font-size="8.00">ebp</text>
<text text-anchor="start" x="11" y="-196.6" font-family="monospace" font-size="8.00">0x0804cbd1: </text>
<text text-anchor="start" x="79" y="-196.6" font-family="monospace" font-size="8.00">mov</text>
<text text-anchor="start" x="105" y="-196.6" font-family="monospace" font-size="8.00">ebp, esp</text>
<text text-anchor="start" x="11" y="-183.6" font-family="monospace" font-size="8.00">0x0804cbd3: </text>
<text text-anchor="start" x="79" y="-183.6" font-family="monospace" font-size="8.00">and</text>
<text text-anchor="start" x="105" y="-183.6" font-family="monospace" font-size="8.00">esp, 0xfffffff0</text>
<text text-anchor="start" x="11" y="-170.6" font-family="monospace" font-size="8.00">0x0804cbd6: </text>
<text text-anchor="start" x="79" y="-170.6" font-family="monospace" font-size="8.00">sub</text>
<text text-anchor="start" x="105" y="-170.6" font-family="monospace" font-size="8.00">esp, 0x10</text>
<text text-anchor="start" x="11" y="-157.6" font-family="monospace" font-size="8.00">0x0804cbd9: </text>
<text text-anchor="start" x="79" y="-157.6" font-family="monospace" font-size="8.00">mov</text>
<text text-anchor="start" x="105" y="-157.6" font-family="monospace" font-size="8.00">eax, dword ptr [ebp + 0xc]</text>
<text text-anchor="start" x="11" y="-144.6" font-family="monospace" font-size="8.00">0x0804cbdc: </text>
<text text-anchor="start" x="79" y="-144.6" font-family="monospace" font-size="8.00">mov</text>
<text text-anchor="start" x="105" y="-144.6" font-family="monospace" font-size="8.00">dword ptr [esp + 4], eax</text>
<text text-anchor="start" x="11" y="-131.6" font-family="monospace" font-size="8.00">0x0804cbe0: </text>
<text text-anchor="start" x="79" y="-131.6" font-family="monospace" font-size="8.00">mov</text>
<text text-anchor="start" x="105" y="-131.6" font-family="monospace" font-size="8.00">eax, dword ptr [ebp + 8]</text>
<text text-anchor="start" x="11" y="-118.6" font-family="monospace" font-size="8.00">0x0804cbe3: </text>
<text text-anchor="start" x="79" y="-118.6" font-family="monospace" font-size="8.00">mov</text>
<text text-anchor="start" x="105" y="-118.6" font-family="monospace" font-size="8.00">dword ptr [esp], eax</text>
<text text-anchor="start" x="11" y="-105.6" font-family="monospace" font-size="8.00">0x0804cbe6: </text>
<text text-anchor="start" x="79" y="-105.6" font-family="monospace" font-size="8.00">call</text>
<text text-anchor="start" x="105" y="-105.6" font-family="monospace" font-size="8.00">0x8304df0</text>
<text text-anchor="start" x="246" y="-105.6" font-family="monospace" font-size="8.00" fill="gray">; toplev_main</text>
</a>
</g>
</g>
<!-- 167462 -->
<g id="node2" class="node">
<title>167462</title>
<path fill="none" stroke="black" d="M84,-0.5C84,-0.5 242,-0.5 242,-0.5 248,-0.5 254,-6.5 254,-12.5 254,-12.5 254,-47.5 254,-47.5 254,-53.5 248,-59.5 242,-59.5 242,-59.5 84,-59.5 84,-59.5 78,-59.5 72,-53.5 72,-47.5 72,-47.5 72,-12.5 72,-12.5 72,-6.5 78,-0.5 84,-0.5"/>
<text text-anchor="start" x="83" y="-45.6" font-family="monospace" font-size="8.00">0x804cbeb</text>
<text text-anchor="start" x="135" y="-45.6" font-family="monospace" font-size="8.00">(0x804cbd0)</text>
<text text-anchor="start" x="197" y="-46.6" font-family="monospace" font-weight="bold" font-size="8.00">main+0x1b</text>
<polyline fill="none" stroke="black" points="72,-36.5 254,-36.5 "/>
<text text-anchor="start" x="112" y="-23.1" font-family="monospace" font-size="8.00">0x0804cbeb: </text>
<text text-anchor="start" x="180" y="-23.1" font-family="monospace" font-size="8.00">leave</text>
<text text-anchor="start" x="112" y="-10.1" font-family="monospace" font-size="8.00">0x0804cbec: </text>
<text text-anchor="start" x="180" y="-10.1" font-family="monospace" font-size="8.00">ret</text>
</g>
<!-- 47&#45;&gt;167462 -->
<g id="edge1" class="edge">
<title>47&#45;&gt;167462</title>
<path fill="none" stroke="gray" stroke-dasharray="1,5" d="M163,-96.26C163,-87.11 163,-78.06 163,-69.75"/>
<polygon fill="gray" stroke="gray" points="166.5,-69.67 163,-59.67 159.5,-69.67 166.5,-69.67"/>
</g>
</g>
</svg>
