<?xml version="1.0" encoding="UTF-8" standalone="no"?>
<!DOCTYPE svg PUBLIC "-//W3C//DTD SVG 1.1//EN"
 "http://www.w3.org/Graphics/SVG/1.1/DTD/svg11.dtd">
<!-- Generated by graphviz version 2.40.1 (20161225.0304)
 -->
<!-- Pages: 1 -->
<svg width="407pt" height="460pt"
 viewBox="0.00 0.00 407.00 460.00" xmlns="http://www.w3.org/2000/svg" xmlns:xlink="http://www.w3.org/1999/xlink">
<g id="graph0" class="graph" transform="scale(1 1) rotate(0) translate(4 456)">
<polygon fill="#ffffff" stroke="transparent" points="-4,4 -4,-456 403,-456 403,4 -4,4"/>
<!-- 1 -->
<g id="node1" class="node">
<title>1</title>
<g id="a_node1"><a xlink:href="/api/cfg/0x8048810" xlink:title="Click to navigate to function 0x8048810">
<path fill="none" stroke="#000000" d="M30,-301.5C30,-301.5 369,-301.5 369,-301.5 375,-301.5 381,-307.5 381,-313.5 381,-313.5 381,-439.5 381,-439.5 381,-445.5 375,-451.5 369,-451.5 369,-451.5 30,-451.5 30,-451.5 24,-451.5 18,-445.5 18,-439.5 18,-439.5 18,-313.5 18,-313.5 18,-307.5 24,-301.5 30,-301.5"/>
<text text-anchor="start" x="129.5" y="-437.6" font-family="monospace" font-size="8.00" fill="#000000">0x8048840</text>
<text text-anchor="start" x="181.5" y="-437.6" font-family="monospace" font-size="8.00" fill="#000000">(0x8048840)</text>
<text text-anchor="start" x="243.5" y="-438.6" font-family="monospace" font-weight="bold" font-size="8.00" fill="#000000">main</text>
<polyline fill="none" stroke="#000000" points="18,-428.5 381,-428.5 "/>
<text text-anchor="start" x="29.5" y="-414.6" font-family="monospace" font-size="8.00" fill="#000000">0x08048840: </text>
<text text-anchor="start" x="97.5" y="-414.6" font-family="monospace" font-size="8.00" fill="#000000">push</text>
<text text-anchor="start" x="123.5" y="-414.6" font-family="monospace" font-size="8.00" fill="#000000">ebp</text>
<text text-anchor="start" x="29.5" y="-401.6" font-family="monospace" font-size="8.00" fill="#000000">0x08048841: </text>
<text text-anchor="start" x="97.5" y="-401.6" font-family="monospace" font-size="8.00" fill="#000000">mov</text>
<text text-anchor="start" x="123.5" y="-401.6" font-family="monospace" font-size="8.00" fill="#000000">ebp, esp</text>
<text text-anchor="start" x="29.5" y="-388.6" font-family="monospace" font-size="8.00" fill="#000000">0x08048843: </text>
<text text-anchor="start" x="97.5" y="-388.6" font-family="monospace" font-size="8.00" fill="#000000">and</text>
<text text-anchor="start" x="123.5" y="-388.6" font-family="monospace" font-size="8.00" fill="#000000">esp, 0xfffffff0</text>
<text text-anchor="start" x="29.5" y="-375.6" font-family="monospace" font-size="8.00" fill="#000000">0x08048846: </text>
<text text-anchor="start" x="97.5" y="-375.6" font-family="monospace" font-size="8.00" fill="#000000">sub</text>
<text text-anchor="start" x="123.5" y="-375.6" font-family="monospace" font-size="8.00" fill="#000000">esp, 0x10</text>
<text text-anchor="start" x="29.5" y="-362.6" font-family="monospace" font-size="8.00" fill="#000000">0x08048849: </text>
<text text-anchor="start" x="97.5" y="-362.6" font-family="monospace" font-size="8.00" fill="#000000">mov</text>
<text text-anchor="start" x="123.5" y="-362.6" font-family="monospace" font-size="8.00" fill="#000000">eax, dword ptr [ebp + 0xc]</text>
<text text-anchor="start" x="29.5" y="-349.6" font-family="monospace" font-size="8.00" fill="#000000">0x0804884c: </text>
<text text-anchor="start" x="97.5" y="-349.6" font-family="monospace" font-size="8.00" fill="#000000">mov</text>
<text text-anchor="start" x="123.5" y="-349.6" font-family="monospace" font-size="8.00" fill="#000000">dword ptr [esp + 4], eax</text>
<text text-anchor="start" x="29.5" y="-336.6" font-family="monospace" font-size="8.00" fill="#000000">0x08048850: </text>
<text text-anchor="start" x="97.5" y="-336.6" font-family="monospace" font-size="8.00" fill="#000000">mov</text>
<text text-anchor="start" x="123.5" y="-336.6" font-family="monospace" font-size="8.00" fill="#000000">eax, dword ptr [ebp + 8]</text>
<text text-anchor="start" x="29.5" y="-323.6" font-family="monospace" font-size="8.00" fill="#000000">0x08048853: </text>
<text text-anchor="start" x="97.5" y="-323.6" font-family="monospace" font-size="8.00" fill="#000000">mov</text>
<text text-anchor="start" x="123.5" y="-323.6" font-family="monospace" font-size="8.00" fill="#000000">dword ptr [esp], eax</text>
<text text-anchor="start" x="29.5" y="-310.6" font-family="monospace" font-size="8.00" fill="#000000">0x08048856: </text>
<text text-anchor="start" x="97.5" y="-310.6" font-family="monospace" font-size="8.00" fill="#000000">call</text>
<text text-anchor="start" x="123.5" y="-310.6" font-family="monospace" font-size="8.00" fill="#000000">0x8048810</text>
<text text-anchor="start" x="264.5" y="-310.6" font-family="monospace" font-size="8.00" fill="#c0c0c0">; _gfortran_set_args</text>
</a>
</g>
</g>
<!-- 340 -->
<g id="node2" class="node">
<title>340</title>
<g id="a_node2"><a xlink:href="/api/cfg/0x8048740" xlink:title="Click to navigate to function 0x8048740">
<path fill="none" stroke="#000000" d="M12,-192.5C12,-192.5 387,-192.5 387,-192.5 393,-192.5 399,-198.5 399,-204.5 399,-204.5 399,-252.5 399,-252.5 399,-258.5 393,-264.5 387,-264.5 387,-264.5 12,-264.5 12,-264.5 6,-264.5 0,-258.5 0,-252.5 0,-252.5 0,-204.5 0,-204.5 0,-198.5 6,-192.5 12,-192.5"/>
<text text-anchor="start" x="116.5" y="-250.6" font-family="monospace" font-size="8.00" fill="#000000">0x804885b</text>
<text text-anchor="start" x="168.5" y="-250.6" font-family="monospace" font-size="8.00" fill="#000000">(0x8048840)</text>
<text text-anchor="start" x="230.5" y="-251.6" font-family="monospace" font-weight="bold" font-size="8.00" fill="#000000">main+0x1b</text>
<polyline fill="none" stroke="#000000" points="0,-241.5 399,-241.5 "/>
<text text-anchor="start" x="11.5" y="-227.6" font-family="monospace" font-size="8.00" fill="#000000">0x0804885b: </text>
<text text-anchor="start" x="79.5" y="-227.6" font-family="monospace" font-size="8.00" fill="#000000">mov</text>
<text text-anchor="start" x="105.5" y="-227.6" font-family="monospace" font-size="8.00" fill="#000000">dword ptr [esp + 4], 0x804ef5c</text>
<text text-anchor="start" x="11.5" y="-214.6" font-family="monospace" font-size="8.00" fill="#000000">0x08048863: </text>
<text text-anchor="start" x="79.5" y="-214.6" font-family="monospace" font-size="8.00" fill="#000000">mov</text>
<text text-anchor="start" x="105.5" y="-214.6" font-family="monospace" font-size="8.00" fill="#000000">dword ptr [esp], 7</text>
<text text-anchor="start" x="11.5" y="-201.6" font-family="monospace" font-size="8.00" fill="#000000">0x0804886a: </text>
<text text-anchor="start" x="79.5" y="-201.6" font-family="monospace" font-size="8.00" fill="#000000">call</text>
<text text-anchor="start" x="105.5" y="-201.6" font-family="monospace" font-size="8.00" fill="#000000">0x8048740</text>
<text text-anchor="start" x="267.5" y="-201.6" font-family="monospace" font-size="8.00" fill="#c0c0c0">; _gfortran_set_options</text>
</a>
</g>
</g>
<!-- 1&#45;&gt;340 -->
<g id="edge1" class="edge">
<title>1&#45;&gt;340</title>
<path fill="none" stroke="#c0c0c0" stroke-dasharray="1,5" d="M199.5,-301.1993C199.5,-292.262 199.5,-283.35 199.5,-274.985"/>
<polygon fill="#c0c0c0" stroke="#c0c0c0" points="203.0001,-274.7211 199.5,-264.7212 196.0001,-274.7212 203.0001,-274.7211"/>
</g>
<!-- 343 -->
<g id="node3" class="node">
<title>343</title>
<g id="a_node3"><a xlink:href="/api/cfg/0x804a070" xlink:title="Click to navigate to function 0x804a070">
<path fill="none" stroke="#000000" d="M106,-109.5C106,-109.5 293,-109.5 293,-109.5 299,-109.5 305,-115.5 305,-121.5 305,-121.5 305,-143.5 305,-143.5 305,-149.5 299,-155.5 293,-155.5 293,-155.5 106,-155.5 106,-155.5 100,-155.5 94,-149.5 94,-143.5 94,-143.5 94,-121.5 94,-121.5 94,-115.5 100,-109.5 106,-109.5"/>
<text text-anchor="start" x="116.5" y="-141.6" font-family="monospace" font-size="8.00" fill="#000000">0x804886f</text>
<text text-anchor="start" x="168.5" y="-141.6" font-family="monospace" font-size="8.00" fill="#000000">(0x8048840)</text>
<text text-anchor="start" x="230.5" y="-142.6" font-family="monospace" font-weight="bold" font-size="8.00" fill="#000000">main+0x2f</text>
<polyline fill="none" stroke="#000000" points="94,-132.5 305,-132.5 "/>
<text text-anchor="start" x="105.5" y="-118.6" font-family="monospace" font-size="8.00" fill="#000000">0x0804886f: </text>
<text text-anchor="start" x="173.5" y="-118.6" font-family="monospace" font-size="8.00" fill="#000000">call</text>
<text text-anchor="start" x="199.5" y="-118.6" font-family="monospace" font-size="8.00" fill="#000000">0x804a070</text>
<text text-anchor="start" x="251.5" y="-118.6" font-family="monospace" font-size="8.00" fill="#c0c0c0">; MAIN__</text>
</a>
</g>
</g>
<!-- 340&#45;&gt;343 -->
<g id="edge2" class="edge">
<title>340&#45;&gt;343</title>
<path fill="none" stroke="#c0c0c0" stroke-dasharray="1,5" d="M199.5,-192.48C199.5,-183.7047 199.5,-174.3587 199.5,-165.7204"/>
<polygon fill="#c0c0c0" stroke="#c0c0c0" points="203.0001,-165.6203 199.5,-155.6204 196.0001,-165.6204 203.0001,-165.6203"/>
</g>
<!-- 479 -->
<g id="node4" class="node">
<title>479</title>
<path fill="none" stroke="#000000" d="M117.5,-.5C117.5,-.5 281.5,-.5 281.5,-.5 287.5,-.5 293.5,-6.5 293.5,-12.5 293.5,-12.5 293.5,-60.5 293.5,-60.5 293.5,-66.5 287.5,-72.5 281.5,-72.5 281.5,-72.5 117.5,-72.5 117.5,-72.5 111.5,-72.5 105.5,-66.5 105.5,-60.5 105.5,-60.5 105.5,-12.5 105.5,-12.5 105.5,-6.5 111.5,-.5 117.5,-.5"/>
<text text-anchor="start" x="116.5" y="-58.6" font-family="monospace" font-size="8.00" fill="#000000">0x8048874</text>
<text text-anchor="start" x="168.5" y="-58.6" font-family="monospace" font-size="8.00" fill="#000000">(0x8048840)</text>
<text text-anchor="start" x="230.5" y="-59.6" font-family="monospace" font-weight="bold" font-size="8.00" fill="#000000">main+0x34</text>
<polyline fill="none" stroke="#000000" points="105.5,-49.5 293.5,-49.5 "/>
<text text-anchor="start" x="126.5" y="-35.6" font-family="monospace" font-size="8.00" fill="#000000">0x08048874: </text>
<text text-anchor="start" x="194.5" y="-35.6" font-family="monospace" font-size="8.00" fill="#000000">xor</text>
<text text-anchor="start" x="225.5" y="-35.6" font-family="monospace" font-size="8.00" fill="#000000">eax, eax</text>
<text text-anchor="start" x="126.5" y="-22.6" font-family="monospace" font-size="8.00" fill="#000000">0x08048876: </text>
<text text-anchor="start" x="194.5" y="-22.6" font-family="monospace" font-size="8.00" fill="#000000">leave</text>
<text text-anchor="start" x="126.5" y="-9.6" font-family="monospace" font-size="8.00" fill="#000000">0x08048877: </text>
<text text-anchor="start" x="194.5" y="-9.6" font-family="monospace" font-size="8.00" fill="#000000">ret</text>
</g>
<!-- 343&#45;&gt;479 -->
<g id="edge3" class="edge">
<title>343&#45;&gt;479</title>
<path fill="none" stroke="#c0c0c0" stroke-dasharray="1,5" d="M199.5,-109.2611C199.5,-101.2782 199.5,-92.037 199.5,-82.8748"/>
<polygon fill="#c0c0c0" stroke="#c0c0c0" points="203.0001,-82.6353 199.5,-72.6353 196.0001,-82.6354 203.0001,-82.6353"/>
</g>
</g>
</svg>
