<?xml version="1.0" encoding="UTF-8" standalone="no"?>
<!DOCTYPE svg PUBLIC "-//W3C//DTD SVG 1.1//EN"
 "http://www.w3.org/Graphics/SVG/1.1/DTD/svg11.dtd">
<!-- Generated by graphviz version 2.44.1 (0)
 -->
<!-- Pages: 1 -->
<svg width="361pt" height="281pt"
 viewBox="0.00 0.00 361.00 281.00" xmlns="http://www.w3.org/2000/svg" xmlns:xlink="http://www.w3.org/1999/xlink">
<g id="graph0" class="graph" transform="scale(1 1) rotate(0) translate(4 277)">
<polygon fill="white" stroke="transparent" points="-4,4 -4,-277 357,-277 357,4 -4,4"/>
<!-- 2784 -->
<g id="node1" class="node">
<title>2784</title>
<g id="a_node1"><a xlink:href="/api/cfg/0x86add70" xlink:title="Click to navigate to function 0x86add70">
<path fill="none" stroke="black" d="M12,-83.5C12,-83.5 341,-83.5 341,-83.5 347,-83.5 353,-89.5 353,-95.5 353,-95.5 353,-260.5 353,-260.5 353,-266.5 347,-272.5 341,-272.5 341,-272.5 12,-272.5 12,-272.5 6,-272.5 0,-266.5 0,-260.5 0,-260.5 0,-95.5 0,-95.5 0,-89.5 6,-83.5 12,-83.5"/>
<text text-anchor="start" x="108.5" y="-258.6" font-family="monospace" font-size="8.00">0x86ad430</text>
<text text-anchor="start" x="160.5" y="-258.6" font-family="monospace" font-size="8.00">(0x86ad430)</text>
<text text-anchor="start" x="222.5" y="-259.6" font-family="monospace" font-weight="bold" font-size="8.00">main</text>
<polyline fill="none" stroke="black" points="0,-249.5 353,-249.5 "/>
<text text-anchor="start" x="11.5" y="-236.1" font-family="monospace" font-size="8.00">0x086ad430: </text>
<text text-anchor="start" x="79.5" y="-236.1" font-family="monospace" font-size="8.00">lea</text>
<text text-anchor="start" x="105.5" y="-236.1" font-family="monospace" font-size="8.00">ecx, [esp + 4]</text>
<text text-anchor="start" x="11.5" y="-223.1" font-family="monospace" font-size="8.00">0x086ad434: </text>
<text text-anchor="start" x="79.5" y="-223.1" font-family="monospace" font-size="8.00">and</text>
<text text-anchor="start" x="105.5" y="-223.1" font-family="monospace" font-size="8.00">esp, 0xfffffff0</text>
<text text-anchor="start" x="11.5" y="-210.1" font-family="monospace" font-size="8.00">0x086ad437: </text>
<text text-anchor="start" x="79.5" y="-210.1" font-family="monospace" font-size="8.00">push</text>
<text text-anchor="start" x="105.5" y="-210.1" font-family="monospace" font-size="8.00">dword ptr [ecx &#45; 4]</text>
<text text-anchor="start" x="11.5" y="-197.1" font-family="monospace" font-size="8.00">0x086ad43a: </text>
<text text-anchor="start" x="79.5" y="-197.1" font-family="monospace" font-size="8.00">push</text>
<text text-anchor="start" x="105.5" y="-197.1" font-family="monospace" font-size="8.00">ebp</text>
<text text-anchor="start" x="11.5" y="-184.1" font-family="monospace" font-size="8.00">0x086ad43b: </text>
<text text-anchor="start" x="79.5" y="-184.1" font-family="monospace" font-size="8.00">mov</text>
<text text-anchor="start" x="105.5" y="-184.1" font-family="monospace" font-size="8.00">ebp, esp</text>
<text text-anchor="start" x="11.5" y="-171.1" font-family="monospace" font-size="8.00">0x086ad43d: </text>
<text text-anchor="start" x="79.5" y="-171.1" font-family="monospace" font-size="8.00">push</text>
<text text-anchor="start" x="105.5" y="-171.1" font-family="monospace" font-size="8.00">ecx</text>
<text text-anchor="start" x="11.5" y="-158.1" font-family="monospace" font-size="8.00">0x086ad43e: </text>
<text text-anchor="start" x="79.5" y="-158.1" font-family="monospace" font-size="8.00">sub</text>
<text text-anchor="start" x="105.5" y="-158.1" font-family="monospace" font-size="8.00">esp, 0x14</text>
<text text-anchor="start" x="11.5" y="-145.1" font-family="monospace" font-size="8.00">0x086ad441: </text>
<text text-anchor="start" x="79.5" y="-145.1" font-family="monospace" font-size="8.00">mov</text>
<text text-anchor="start" x="105.5" y="-145.1" font-family="monospace" font-size="8.00">eax, dword ptr [ecx + 4]</text>
<text text-anchor="start" x="11.5" y="-132.1" font-family="monospace" font-size="8.00">0x086ad444: </text>
<text text-anchor="start" x="79.5" y="-132.1" font-family="monospace" font-size="8.00">mov</text>
<text text-anchor="start" x="105.5" y="-132.1" font-family="monospace" font-size="8.00">edx, dword ptr [ecx]</text>
<text text-anchor="start" x="11.5" y="-119.1" font-family="monospace" font-size="8.00">0x086ad446: </text>
<text text-anchor="start" x="79.5" y="-119.1" font-family="monospace" font-size="8.00">mov</text>
<text text-anchor="start" x="105.5" y="-119.1" font-family="monospace" font-size="8.00">dword ptr [esp + 4], eax</text>
<text text-anchor="start" x="11.5" y="-106.1" font-family="monospace" font-size="8.00">0x086ad44a: </text>
<text text-anchor="start" x="79.5" y="-106.1" font-family="monospace" font-size="8.00">mov</text>
<text text-anchor="start" x="105.5" y="-106.1" font-family="monospace" font-size="8.00">dword ptr [esp], edx</text>
<text text-anchor="start" x="11.5" y="-93.1" font-family="monospace" font-size="8.00">0x086ad44d: </text>
<text text-anchor="start" x="79.5" y="-93.1" font-family="monospace" font-size="8.00">call</text>
<text text-anchor="start" x="105.5" y="-93.1" font-family="monospace" font-size="8.00">0x86add70</text>
<text text-anchor="start" x="236.5" y="-93.1" font-family="monospace" font-size="8.00" fill="gray">; _gfortran_set_args</text>
</a>
</g>
</g>
<!-- 60205 -->
<g id="node2" class="node">
<title>60205</title>
<g id="a_node2"><a xlink:href="/api/cfg/0x82565c0" xlink:title="Click to navigate to function 0x82565c0">
<path fill="none" stroke="black" d="M83,-0.5C83,-0.5 270,-0.5 270,-0.5 276,-0.5 282,-6.5 282,-12.5 282,-12.5 282,-34.5 282,-34.5 282,-40.5 276,-46.5 270,-46.5 270,-46.5 83,-46.5 83,-46.5 77,-46.5 71,-40.5 71,-34.5 71,-34.5 71,-12.5 71,-12.5 71,-6.5 77,-0.5 83,-0.5"/>
<text text-anchor="start" x="96.5" y="-32.6" font-family="monospace" font-size="8.00">0x86ad452</text>
<text text-anchor="start" x="148.5" y="-32.6" font-family="monospace" font-size="8.00">(0x86ad430)</text>
<text text-anchor="start" x="210.5" y="-33.6" font-family="monospace" font-weight="bold" font-size="8.00">main+0x22</text>
<polyline fill="none" stroke="black" points="71,-23.5 282,-23.5 "/>
<text text-anchor="start" x="82.5" y="-9.6" font-family="monospace" font-size="8.00">0x086ad452: </text>
<text text-anchor="start" x="150.5" y="-9.6" font-family="monospace" font-size="8.00">call</text>
<text text-anchor="start" x="176.5" y="-9.6" font-family="monospace" font-size="8.00">0x82565c0</text>
<text text-anchor="start" x="228.5" y="-9.6" font-family="monospace" font-size="8.00" fill="gray">; MAIN__</text>
</a>
</g>
</g>
<!-- 2784&#45;&gt;60205 -->
<g id="edge1" class="edge">
<title>2784&#45;&gt;60205</title>
<path fill="none" stroke="gray" stroke-dasharray="1,5" d="M176.5,-83.46C176.5,-73.94 176.5,-64.81 176.5,-56.68"/>
<polygon fill="gray" stroke="gray" points="180,-56.65 176.5,-46.65 173,-56.65 180,-56.65"/>
</g>
</g>
</svg>
