<?xml version="1.0" encoding="UTF-8" standalone="no"?>
<!DOCTYPE svg PUBLIC "-//W3C//DTD SVG 1.1//EN"
 "http://www.w3.org/Graphics/SVG/1.1/DTD/svg11.dtd">
<!-- Generated by graphviz version 2.44.1 (0)
 -->
<!-- Pages: 1 -->
<svg width="382pt" height="769pt"
 viewBox="0.00 0.00 382.00 769.00" xmlns="http://www.w3.org/2000/svg" xmlns:xlink="http://www.w3.org/1999/xlink">
<g id="graph0" class="graph" transform="scale(1 1) rotate(0) translate(4 765)">
<polygon fill="white" stroke="transparent" points="-4,4 -4,-765 378,-765 378,4 -4,4"/>
<!-- 746 -->
<g id="node1" class="node">
<title>746</title>
<g id="a_node1"><a xlink:href="/api/cfg/0x80779b0" xlink:title="Click to navigate to function 0x80779b0">
<path fill="none" stroke="black" d="M12,-545.5C12,-545.5 362,-545.5 362,-545.5 368,-545.5 374,-551.5 374,-557.5 374,-557.5 374,-748.5 374,-748.5 374,-754.5 368,-760.5 362,-760.5 362,-760.5 12,-760.5 12,-760.5 6,-760.5 0,-754.5 0,-748.5 0,-748.5 0,-557.5 0,-557.5 0,-551.5 6,-545.5 12,-545.5"/>
<text text-anchor="start" x="119" y="-746.6" font-family="monospace" font-size="8.00">0x80780e0</text>
<text text-anchor="start" x="171" y="-746.6" font-family="monospace" font-size="8.00">(0x80780e0)</text>
<text text-anchor="start" x="233" y="-747.6" font-family="monospace" font-weight="bold" font-size="8.00">main</text>
<polyline fill="none" stroke="black" points="0,-737.5 374,-737.5 "/>
<text text-anchor="start" x="11" y="-724.1" font-family="monospace" font-size="8.00">0x080780e0: </text>
<text text-anchor="start" x="79" y="-724.1" font-family="monospace" font-size="8.00">lea</text>
<text text-anchor="start" x="105" y="-724.1" font-family="monospace" font-size="8.00">ecx, [esp + 4]</text>
<text text-anchor="start" x="11" y="-711.1" font-family="monospace" font-size="8.00">0x080780e4: </text>
<text text-anchor="start" x="79" y="-711.1" font-family="monospace" font-size="8.00">and</text>
<text text-anchor="start" x="105" y="-711.1" font-family="monospace" font-size="8.00">esp, 0xfffffff0</text>
<text text-anchor="start" x="11" y="-698.1" font-family="monospace" font-size="8.00">0x080780e7: </text>
<text text-anchor="start" x="79" y="-698.1" font-family="monospace" font-size="8.00">push</text>
<text text-anchor="start" x="105" y="-698.1" font-family="monospace" font-size="8.00">dword ptr [ecx &#45; 4]</text>
<text text-anchor="start" x="11" y="-685.1" font-family="monospace" font-size="8.00">0x080780ea: </text>
<text text-anchor="start" x="79" y="-685.1" font-family="monospace" font-size="8.00">lea</text>
<text text-anchor="start" x="105" y="-685.1" font-family="monospace" font-size="8.00">eax, [ecx + 4]</text>
<text text-anchor="start" x="11" y="-672.1" font-family="monospace" font-size="8.00">0x080780ed: </text>
<text text-anchor="start" x="79" y="-672.1" font-family="monospace" font-size="8.00">push</text>
<text text-anchor="start" x="105" y="-672.1" font-family="monospace" font-size="8.00">ebp</text>
<text text-anchor="start" x="11" y="-659.1" font-family="monospace" font-size="8.00">0x080780ee: </text>
<text text-anchor="start" x="79" y="-659.1" font-family="monospace" font-size="8.00">mov</text>
<text text-anchor="start" x="105" y="-659.1" font-family="monospace" font-size="8.00">ebp, esp</text>
<text text-anchor="start" x="11" y="-646.1" font-family="monospace" font-size="8.00">0x080780f0: </text>
<text text-anchor="start" x="79" y="-646.1" font-family="monospace" font-size="8.00">sub</text>
<text text-anchor="start" x="105" y="-646.1" font-family="monospace" font-size="8.00">esp, 0x28</text>
<text text-anchor="start" x="11" y="-633.1" font-family="monospace" font-size="8.00">0x080780f3: </text>
<text text-anchor="start" x="79" y="-633.1" font-family="monospace" font-size="8.00">mov</text>
<text text-anchor="start" x="105" y="-633.1" font-family="monospace" font-size="8.00">dword ptr [ebp &#45; 4], ebx</text>
<text text-anchor="start" x="11" y="-620.1" font-family="monospace" font-size="8.00">0x080780f6: </text>
<text text-anchor="start" x="79" y="-620.1" font-family="monospace" font-size="8.00">lea</text>
<text text-anchor="start" x="105" y="-620.1" font-family="monospace" font-size="8.00">ebx, [ebp &#45; 0x14]</text>
<text text-anchor="start" x="11" y="-607.1" font-family="monospace" font-size="8.00">0x080780f9: </text>
<text text-anchor="start" x="79" y="-607.1" font-family="monospace" font-size="8.00">mov</text>
<text text-anchor="start" x="105" y="-607.1" font-family="monospace" font-size="8.00">dword ptr [ebp &#45; 8], ecx</text>
<text text-anchor="start" x="11" y="-594.1" font-family="monospace" font-size="8.00">0x080780fc: </text>
<text text-anchor="start" x="79" y="-594.1" font-family="monospace" font-size="8.00">mov</text>
<text text-anchor="start" x="105" y="-594.1" font-family="monospace" font-size="8.00">dword ptr [esp], ecx</text>
<text text-anchor="start" x="11" y="-581.1" font-family="monospace" font-size="8.00">0x080780ff: </text>
<text text-anchor="start" x="79" y="-581.1" font-family="monospace" font-size="8.00">mov</text>
<text text-anchor="start" x="105" y="-581.1" font-family="monospace" font-size="8.00">dword ptr [esp + 8], ebx</text>
<text text-anchor="start" x="11" y="-568.1" font-family="monospace" font-size="8.00">0x08078103: </text>
<text text-anchor="start" x="79" y="-568.1" font-family="monospace" font-size="8.00">mov</text>
<text text-anchor="start" x="105" y="-568.1" font-family="monospace" font-size="8.00">dword ptr [esp + 4], eax</text>
<text text-anchor="start" x="11" y="-555.1" font-family="monospace" font-size="8.00">0x08078107: </text>
<text text-anchor="start" x="79" y="-555.1" font-family="monospace" font-size="8.00">call</text>
<text text-anchor="start" x="105" y="-555.1" font-family="monospace" font-size="8.00">0x80779b0</text>
<text text-anchor="start" x="236" y="-555.1" font-family="monospace" font-size="8.00" fill="gray">; CCTKi_InitialiseCactus</text>
</a>
</g>
</g>
<!-- 40946 -->
<g id="node2" class="node">
<title>40946</title>
<g id="a_node2"><a xlink:href="/api/cfg/0x8200048" xlink:title="Click to navigate to function 0x8200048">
<path fill="none" stroke="black" d="M83.5,-449.5C83.5,-449.5 290.5,-449.5 290.5,-449.5 296.5,-449.5 302.5,-455.5 302.5,-461.5 302.5,-461.5 302.5,-496.5 302.5,-496.5 302.5,-502.5 296.5,-508.5 290.5,-508.5 290.5,-508.5 83.5,-508.5 83.5,-508.5 77.5,-508.5 71.5,-502.5 71.5,-496.5 71.5,-496.5 71.5,-461.5 71.5,-461.5 71.5,-455.5 77.5,-449.5 83.5,-449.5"/>
<text text-anchor="start" x="108" y="-494.6" font-family="monospace" font-size="8.00">0x807810c</text>
<text text-anchor="start" x="160" y="-494.6" font-family="monospace" font-size="8.00">(0x80780e0)</text>
<text text-anchor="start" x="222" y="-495.6" font-family="monospace" font-weight="bold" font-size="8.00">main+0x2c</text>
<polyline fill="none" stroke="black" points="71.5,-485.5 302.5,-485.5 "/>
<text text-anchor="start" x="83" y="-472.1" font-family="monospace" font-size="8.00">0x0807810c: </text>
<text text-anchor="start" x="151" y="-472.1" font-family="monospace" font-size="8.00">mov</text>
<text text-anchor="start" x="177" y="-472.1" font-family="monospace" font-size="8.00">dword ptr [esp], ebx</text>
<text text-anchor="start" x="83" y="-459.1" font-family="monospace" font-size="8.00">0x0807810f: </text>
<text text-anchor="start" x="151" y="-459.1" font-family="monospace" font-size="8.00">call</text>
<text text-anchor="start" x="177" y="-459.1" font-family="monospace" font-size="8.00">dword ptr [0x8169538]</text>
</a>
</g>
</g>
<!-- 746&#45;&gt;40946 -->
<g id="edge1" class="edge">
<title>746&#45;&gt;40946</title>
<path fill="none" stroke="gray" stroke-dasharray="1,5" d="M187,-545.03C187,-535.81 187,-526.94 187,-518.87"/>
<polygon fill="gray" stroke="gray" points="190.5,-518.76 187,-508.76 183.5,-518.76 190.5,-518.76"/>
</g>
<!-- 41235 -->
<g id="node3" class="node">
<title>41235</title>
<g id="a_node3"><a xlink:href="/api/cfg/0x8200048" xlink:title="Click to navigate to function 0x8200048">
<path fill="none" stroke="black" d="M83.5,-353.5C83.5,-353.5 290.5,-353.5 290.5,-353.5 296.5,-353.5 302.5,-359.5 302.5,-365.5 302.5,-365.5 302.5,-400.5 302.5,-400.5 302.5,-406.5 296.5,-412.5 290.5,-412.5 290.5,-412.5 83.5,-412.5 83.5,-412.5 77.5,-412.5 71.5,-406.5 71.5,-400.5 71.5,-400.5 71.5,-365.5 71.5,-365.5 71.5,-359.5 77.5,-353.5 83.5,-353.5"/>
<text text-anchor="start" x="107" y="-398.6" font-family="monospace" font-size="8.00">0x8078115</text>
<text text-anchor="start" x="159" y="-398.6" font-family="monospace" font-size="8.00">(0x80780e0)</text>
<text text-anchor="start" x="221" y="-399.6" font-family="monospace" font-weight="bold" font-size="8.00">main+0x35</text>
<polyline fill="none" stroke="black" points="71.5,-389.5 302.5,-389.5 "/>
<text text-anchor="start" x="83" y="-376.1" font-family="monospace" font-size="8.00">0x08078115: </text>
<text text-anchor="start" x="151" y="-376.1" font-family="monospace" font-size="8.00">mov</text>
<text text-anchor="start" x="177" y="-376.1" font-family="monospace" font-size="8.00">dword ptr [esp], ebx</text>
<text text-anchor="start" x="83" y="-363.1" font-family="monospace" font-size="8.00">0x08078118: </text>
<text text-anchor="start" x="151" y="-363.1" font-family="monospace" font-size="8.00">call</text>
<text text-anchor="start" x="177" y="-363.1" font-family="monospace" font-size="8.00">dword ptr [0x816953c]</text>
</a>
</g>
</g>
<!-- 40946&#45;&gt;41235 -->
<g id="edge2" class="edge">
<title>40946&#45;&gt;41235</title>
<path fill="none" stroke="gray" stroke-dasharray="1,5" d="M187,-449.29C187,-440.9 187,-431.6 187,-422.71"/>
<polygon fill="gray" stroke="gray" points="190.5,-422.54 187,-412.54 183.5,-422.54 190.5,-422.54"/>
</g>
<!-- 41236 -->
<g id="node4" class="node">
<title>41236</title>
<g id="a_node4"><a xlink:href="/api/cfg/0x8200048" xlink:title="Click to navigate to function 0x8200048">
<path fill="none" stroke="black" d="M83.5,-257.5C83.5,-257.5 290.5,-257.5 290.5,-257.5 296.5,-257.5 302.5,-263.5 302.5,-269.5 302.5,-269.5 302.5,-304.5 302.5,-304.5 302.5,-310.5 296.5,-316.5 290.5,-316.5 290.5,-316.5 83.5,-316.5 83.5,-316.5 77.5,-316.5 71.5,-310.5 71.5,-304.5 71.5,-304.5 71.5,-269.5 71.5,-269.5 71.5,-263.5 77.5,-257.5 83.5,-257.5"/>
<text text-anchor="start" x="108" y="-302.6" font-family="monospace" font-size="8.00">0x807811e</text>
<text text-anchor="start" x="160" y="-302.6" font-family="monospace" font-size="8.00">(0x80780e0)</text>
<text text-anchor="start" x="222" y="-303.6" font-family="monospace" font-weight="bold" font-size="8.00">main+0x3e</text>
<polyline fill="none" stroke="black" points="71.5,-293.5 302.5,-293.5 "/>
<text text-anchor="start" x="83" y="-280.1" font-family="monospace" font-size="8.00">0x0807811e: </text>
<text text-anchor="start" x="151" y="-280.1" font-family="monospace" font-size="8.00">mov</text>
<text text-anchor="start" x="177" y="-280.1" font-family="monospace" font-size="8.00">dword ptr [esp], ebx</text>
<text text-anchor="start" x="83" y="-267.1" font-family="monospace" font-size="8.00">0x08078121: </text>
<text text-anchor="start" x="151" y="-267.1" font-family="monospace" font-size="8.00">call</text>
<text text-anchor="start" x="177" y="-267.1" font-family="monospace" font-size="8.00">dword ptr [0x8169540]</text>
</a>
</g>
</g>
<!-- 41235&#45;&gt;41236 -->
<g id="edge3" class="edge">
<title>41235&#45;&gt;41236</title>
<path fill="none" stroke="gray" stroke-dasharray="1,5" d="M187,-353.29C187,-344.9 187,-335.6 187,-326.71"/>
<polygon fill="gray" stroke="gray" points="190.5,-326.54 187,-316.54 183.5,-326.54 190.5,-326.54"/>
</g>
<!-- 41237 -->
<g id="node5" class="node">
<title>41237</title>
<g id="a_node5"><a xlink:href="/api/cfg/0x806ff50" xlink:title="Click to navigate to function 0x806ff50">
<path fill="none" stroke="black" d="M28,-161.5C28,-161.5 346,-161.5 346,-161.5 352,-161.5 358,-167.5 358,-173.5 358,-173.5 358,-208.5 358,-208.5 358,-214.5 352,-220.5 346,-220.5 346,-220.5 28,-220.5 28,-220.5 22,-220.5 16,-214.5 16,-208.5 16,-208.5 16,-173.5 16,-173.5 16,-167.5 22,-161.5 28,-161.5"/>
<text text-anchor="start" x="107" y="-206.6" font-family="monospace" font-size="8.00">0x8078127</text>
<text text-anchor="start" x="159" y="-206.6" font-family="monospace" font-size="8.00">(0x80780e0)</text>
<text text-anchor="start" x="221" y="-207.6" font-family="monospace" font-weight="bold" font-size="8.00">main+0x47</text>
<polyline fill="none" stroke="black" points="16,-197.5 358,-197.5 "/>
<text text-anchor="start" x="27" y="-184.1" font-family="monospace" font-size="8.00">0x08078127: </text>
<text text-anchor="start" x="95" y="-184.1" font-family="monospace" font-size="8.00">mov</text>
<text text-anchor="start" x="121" y="-184.1" font-family="monospace" font-size="8.00">dword ptr [esp], ebx</text>
<text text-anchor="start" x="27" y="-171.1" font-family="monospace" font-size="8.00">0x0807812a: </text>
<text text-anchor="start" x="95" y="-171.1" font-family="monospace" font-size="8.00">call</text>
<text text-anchor="start" x="121" y="-171.1" font-family="monospace" font-size="8.00">0x806ff50</text>
<text text-anchor="start" x="231" y="-171.1" font-family="monospace" font-size="8.00" fill="gray">; CCTKi_ShutdownCactus</text>
</a>
</g>
</g>
<!-- 41236&#45;&gt;41237 -->
<g id="edge4" class="edge">
<title>41236&#45;&gt;41237</title>
<path fill="none" stroke="gray" stroke-dasharray="1,5" d="M187,-257.29C187,-248.9 187,-239.6 187,-230.71"/>
<polygon fill="gray" stroke="gray" points="190.5,-230.54 187,-220.54 183.5,-230.54 190.5,-230.54"/>
</g>
<!-- 41238 -->
<g id="node6" class="node">
<title>41238</title>
<path fill="none" stroke="black" d="M78.5,-0.5C78.5,-0.5 295.5,-0.5 295.5,-0.5 301.5,-0.5 307.5,-6.5 307.5,-12.5 307.5,-12.5 307.5,-112.5 307.5,-112.5 307.5,-118.5 301.5,-124.5 295.5,-124.5 295.5,-124.5 78.5,-124.5 78.5,-124.5 72.5,-124.5 66.5,-118.5 66.5,-112.5 66.5,-112.5 66.5,-12.5 66.5,-12.5 66.5,-6.5 72.5,-0.5 78.5,-0.5"/>
<text text-anchor="start" x="108" y="-110.6" font-family="monospace" font-size="8.00">0x807812f</text>
<text text-anchor="start" x="160" y="-110.6" font-family="monospace" font-size="8.00">(0x80780e0)</text>
<text text-anchor="start" x="222" y="-111.6" font-family="monospace" font-weight="bold" font-size="8.00">main+0x4f</text>
<polyline fill="none" stroke="black" points="66.5,-101.5 307.5,-101.5 "/>
<text text-anchor="start" x="78" y="-87.6" font-family="monospace" font-size="8.00">0x0807812f: </text>
<text text-anchor="start" x="146" y="-87.6" font-family="monospace" font-size="8.00">mov</text>
<text text-anchor="start" x="166" y="-87.6" font-family="monospace" font-size="8.00">ecx, dword ptr [ebp &#45; 8]</text>
<text text-anchor="start" x="78" y="-74.6" font-family="monospace" font-size="8.00">0x08078132: </text>
<text text-anchor="start" x="146" y="-74.6" font-family="monospace" font-size="8.00">xor</text>
<text text-anchor="start" x="166" y="-74.6" font-family="monospace" font-size="8.00">eax, eax</text>
<text text-anchor="start" x="78" y="-61.6" font-family="monospace" font-size="8.00">0x08078134: </text>
<text text-anchor="start" x="146" y="-61.6" font-family="monospace" font-size="8.00">mov</text>
<text text-anchor="start" x="166" y="-61.6" font-family="monospace" font-size="8.00">ebx, dword ptr [ebp &#45; 4]</text>
<text text-anchor="start" x="78" y="-48.6" font-family="monospace" font-size="8.00">0x08078137: </text>
<text text-anchor="start" x="146" y="-48.6" font-family="monospace" font-size="8.00">mov</text>
<text text-anchor="start" x="166" y="-48.6" font-family="monospace" font-size="8.00">esp, ebp</text>
<text text-anchor="start" x="78" y="-35.6" font-family="monospace" font-size="8.00">0x08078139: </text>
<text text-anchor="start" x="146" y="-35.6" font-family="monospace" font-size="8.00">pop</text>
<text text-anchor="start" x="166" y="-35.6" font-family="monospace" font-size="8.00">ebp</text>
<text text-anchor="start" x="78" y="-22.6" font-family="monospace" font-size="8.00">0x0807813a: </text>
<text text-anchor="start" x="146" y="-22.6" font-family="monospace" font-size="8.00">lea</text>
<text text-anchor="start" x="166" y="-22.6" font-family="monospace" font-size="8.00">esp, [ecx &#45; 4]</text>
<text text-anchor="start" x="78" y="-9.6" font-family="monospace" font-size="8.00">0x0807813d: </text>
<text text-anchor="start" x="146" y="-9.6" font-family="monospace" font-size="8.00">ret</text>
</g>
<!-- 41237&#45;&gt;41238 -->
<g id="edge5" class="edge">
<title>41237&#45;&gt;41238</title>
<path fill="none" stroke="gray" stroke-dasharray="1,5" d="M187,-161.3C187,-153.27 187,-144.16 187,-134.82"/>
<polygon fill="gray" stroke="gray" points="190.5,-134.63 187,-124.63 183.5,-134.63 190.5,-134.63"/>
</g>
</g>
</svg>
