<?xml version="1.0" encoding="UTF-8" standalone="no"?>
<!DOCTYPE svg PUBLIC "-//W3C//DTD SVG 1.1//EN"
 "http://www.w3.org/Graphics/SVG/1.1/DTD/svg11.dtd">
<!-- Generated by graphviz version 2.44.1 (0)
 -->
<!-- Pages: 1 -->
<svg width="407pt" height="351pt"
 viewBox="0.00 0.00 407.00 351.00" xmlns="http://www.w3.org/2000/svg" xmlns:xlink="http://www.w3.org/1999/xlink">
<g id="graph0" class="graph" transform="scale(1 1) rotate(0) translate(4 347)">
<polygon fill="white" stroke="transparent" points="-4,4 -4,-347 403,-347 403,4 -4,4"/>
<!-- 1 -->
<g id="node1" class="node">
<title>1</title>
<g id="a_node1"><a xlink:href="/api/cfg/0x8048b20" xlink:title="Click to navigate to function 0x8048b20">
<path fill="none" stroke="black" d="M30,-192.5C30,-192.5 369,-192.5 369,-192.5 375,-192.5 381,-198.5 381,-204.5 381,-204.5 381,-330.5 381,-330.5 381,-336.5 375,-342.5 369,-342.5 369,-342.5 30,-342.5 30,-342.5 24,-342.5 18,-336.5 18,-330.5 18,-330.5 18,-204.5 18,-204.5 18,-198.5 24,-192.5 30,-192.5"/>
<text text-anchor="start" x="131.5" y="-328.6" font-family="monospace" font-size="8.00">0x8048b60</text>
<text text-anchor="start" x="183.5" y="-328.6" font-family="monospace" font-size="8.00">(0x8048b60)</text>
<text text-anchor="start" x="245.5" y="-329.6" font-family="monospace" font-weight="bold" font-size="8.00">main</text>
<polyline fill="none" stroke="black" points="18,-319.5 381,-319.5 "/>
<text text-anchor="start" x="29.5" y="-305.6" font-family="monospace" font-size="8.00">0x08048b60: </text>
<text text-anchor="start" x="97.5" y="-305.6" font-family="monospace" font-size="8.00">push</text>
<text text-anchor="start" x="123.5" y="-305.6" font-family="monospace" font-size="8.00">ebp</text>
<text text-anchor="start" x="29.5" y="-292.6" font-family="monospace" font-size="8.00">0x08048b61: </text>
<text text-anchor="start" x="97.5" y="-292.6" font-family="monospace" font-size="8.00">mov</text>
<text text-anchor="start" x="123.5" y="-292.6" font-family="monospace" font-size="8.00">ebp, esp</text>
<text text-anchor="start" x="29.5" y="-279.6" font-family="monospace" font-size="8.00">0x08048b63: </text>
<text text-anchor="start" x="97.5" y="-279.6" font-family="monospace" font-size="8.00">and</text>
<text text-anchor="start" x="123.5" y="-279.6" font-family="monospace" font-size="8.00">esp, 0xfffffff0</text>
<text text-anchor="start" x="29.5" y="-266.6" font-family="monospace" font-size="8.00">0x08048b66: </text>
<text text-anchor="start" x="97.5" y="-266.6" font-family="monospace" font-size="8.00">sub</text>
<text text-anchor="start" x="123.5" y="-266.6" font-family="monospace" font-size="8.00">esp, 0x10</text>
<text text-anchor="start" x="29.5" y="-253.6" font-family="monospace" font-size="8.00">0x08048b69: </text>
<text text-anchor="start" x="97.5" y="-253.6" font-family="monospace" font-size="8.00">mov</text>
<text text-anchor="start" x="123.5" y="-253.6" font-family="monospace" font-size="8.00">eax, dword ptr [ebp + 0xc]</text>
<text text-anchor="start" x="29.5" y="-240.6" font-family="monospace" font-size="8.00">0x08048b6c: </text>
<text text-anchor="start" x="97.5" y="-240.6" font-family="monospace" font-size="8.00">mov</text>
<text text-anchor="start" x="123.5" y="-240.6" font-family="monospace" font-size="8.00">dword ptr [esp + 4], eax</text>
<text text-anchor="start" x="29.5" y="-227.6" font-family="monospace" font-size="8.00">0x08048b70: </text>
<text text-anchor="start" x="97.5" y="-227.6" font-family="monospace" font-size="8.00">mov</text>
<text text-anchor="start" x="123.5" y="-227.6" font-family="monospace" font-size="8.00">eax, dword ptr [ebp + 8]</text>
<text text-anchor="start" x="29.5" y="-214.6" font-family="monospace" font-size="8.00">0x08048b73: </text>
<text text-anchor="start" x="97.5" y="-214.6" font-family="monospace" font-size="8.00">mov</text>
<text text-anchor="start" x="123.5" y="-214.6" font-family="monospace" font-size="8.00">dword ptr [esp], eax</text>
<text text-anchor="start" x="29.5" y="-201.6" font-family="monospace" font-size="8.00">0x08048b76: </text>
<text text-anchor="start" x="97.5" y="-201.6" font-family="monospace" font-size="8.00">call</text>
<text text-anchor="start" x="123.5" y="-201.6" font-family="monospace" font-size="8.00">0x8048b20</text>
<text text-anchor="start" x="264.5" y="-201.6" font-family="monospace" font-size="8.00" fill="gray">; _gfortran_set_args</text>
</a>
</g>
</g>
<!-- 1116 -->
<g id="node2" class="node">
<title>1116</title>
<g id="a_node2"><a xlink:href="/api/cfg/0x80489c0" xlink:title="Click to navigate to function 0x80489c0">
<path fill="none" stroke="black" d="M12,-83.5C12,-83.5 387,-83.5 387,-83.5 393,-83.5 399,-89.5 399,-95.5 399,-95.5 399,-143.5 399,-143.5 399,-149.5 393,-155.5 387,-155.5 387,-155.5 12,-155.5 12,-155.5 6,-155.5 0,-149.5 0,-143.5 0,-143.5 0,-95.5 0,-95.5 0,-89.5 6,-83.5 12,-83.5"/>
<text text-anchor="start" x="119.5" y="-141.6" font-family="monospace" font-size="8.00">0x8048b7b</text>
<text text-anchor="start" x="171.5" y="-141.6" font-family="monospace" font-size="8.00">(0x8048b60)</text>
<text text-anchor="start" x="233.5" y="-142.6" font-family="monospace" font-weight="bold" font-size="8.00">main+0x1b</text>
<polyline fill="none" stroke="black" points="0,-132.5 399,-132.5 "/>
<text text-anchor="start" x="11.5" y="-118.6" font-family="monospace" font-size="8.00">0x08048b7b: </text>
<text text-anchor="start" x="79.5" y="-118.6" font-family="monospace" font-size="8.00">mov</text>
<text text-anchor="start" x="105.5" y="-118.6" font-family="monospace" font-size="8.00">dword ptr [esp + 4], 0x80613b8</text>
<text text-anchor="start" x="11.5" y="-105.6" font-family="monospace" font-size="8.00">0x08048b83: </text>
<text text-anchor="start" x="79.5" y="-105.6" font-family="monospace" font-size="8.00">mov</text>
<text text-anchor="start" x="105.5" y="-105.6" font-family="monospace" font-size="8.00">dword ptr [esp], 7</text>
<text text-anchor="start" x="11.5" y="-92.6" font-family="monospace" font-size="8.00">0x08048b8a: </text>
<text text-anchor="start" x="79.5" y="-92.6" font-family="monospace" font-size="8.00">call</text>
<text text-anchor="start" x="105.5" y="-92.6" font-family="monospace" font-size="8.00">0x80489c0</text>
<text text-anchor="start" x="267.5" y="-92.6" font-family="monospace" font-size="8.00" fill="gray">; _gfortran_set_options</text>
</a>
</g>
</g>
<!-- 1&#45;&gt;1116 -->
<g id="edge1" class="edge">
<title>1&#45;&gt;1116</title>
<path fill="none" stroke="gray" stroke-dasharray="1,5" d="M199.5,-192.22C199.5,-183.3 199.5,-174.41 199.5,-166.08"/>
<polygon fill="gray" stroke="gray" points="203,-165.86 199.5,-155.86 196,-165.86 203,-165.86"/>
</g>
<!-- 1119 -->
<g id="node3" class="node">
<title>1119</title>
<g id="a_node3"><a xlink:href="/api/cfg/0x805c660" xlink:title="Click to navigate to function 0x805c660">
<path fill="none" stroke="black" d="M106,-0.5C106,-0.5 293,-0.5 293,-0.5 299,-0.5 305,-6.5 305,-12.5 305,-12.5 305,-34.5 305,-34.5 305,-40.5 299,-46.5 293,-46.5 293,-46.5 106,-46.5 106,-46.5 100,-46.5 94,-40.5 94,-34.5 94,-34.5 94,-12.5 94,-12.5 94,-6.5 100,-0.5 106,-0.5"/>
<text text-anchor="start" x="120.5" y="-32.6" font-family="monospace" font-size="8.00">0x8048b8f</text>
<text text-anchor="start" x="172.5" y="-32.6" font-family="monospace" font-size="8.00">(0x8048b60)</text>
<text text-anchor="start" x="234.5" y="-33.6" font-family="monospace" font-weight="bold" font-size="8.00">main+0x2f</text>
<polyline fill="none" stroke="black" points="94,-23.5 305,-23.5 "/>
<text text-anchor="start" x="105.5" y="-9.6" font-family="monospace" font-size="8.00">0x08048b8f: </text>
<text text-anchor="start" x="173.5" y="-9.6" font-family="monospace" font-size="8.00">call</text>
<text text-anchor="start" x="199.5" y="-9.6" font-family="monospace" font-size="8.00">0x805c660</text>
<text text-anchor="start" x="251.5" y="-9.6" font-family="monospace" font-size="8.00" fill="gray">; MAIN__</text>
</a>
</g>
</g>
<!-- 1116&#45;&gt;1119 -->
<g id="edge2" class="edge">
<title>1116&#45;&gt;1119</title>
<path fill="none" stroke="gray" stroke-dasharray="1,5" d="M199.5,-83.5C199.5,-74.74 199.5,-65.39 199.5,-56.77"/>
<polygon fill="gray" stroke="gray" points="203,-56.71 199.5,-46.71 196,-56.71 203,-56.71"/>
</g>
</g>
</svg>
