<?xml version="1.0" encoding="UTF-8" standalone="no"?>
<!DOCTYPE svg PUBLIC "-//W3C//DTD SVG 1.1//EN"
 "http://www.w3.org/Graphics/SVG/1.1/DTD/svg11.dtd">
<!-- Generated by graphviz version 2.44.1 (0)
 -->
<!-- Pages: 1 -->
<svg width="361pt" height="429pt"
 viewBox="0.00 0.00 361.00 429.00" xmlns="http://www.w3.org/2000/svg" xmlns:xlink="http://www.w3.org/1999/xlink">
<g id="graph0" class="graph" transform="scale(1 1) rotate(0) translate(4 425)">
<polygon fill="white" stroke="transparent" points="-4,4 -4,-425 357,-425 357,4 -4,4"/>
<!-- 93 -->
<g id="node1" class="node">
<title>93</title>
<g id="a_node1"><a xlink:href="/api/cfg/0x80a4ff0" xlink:title="Click to navigate to function 0x80a4ff0">
<path fill="none" stroke="black" d="M12,-231.5C12,-231.5 341,-231.5 341,-231.5 347,-231.5 353,-237.5 353,-243.5 353,-243.5 353,-408.5 353,-408.5 353,-414.5 347,-420.5 341,-420.5 341,-420.5 12,-420.5 12,-420.5 6,-420.5 0,-414.5 0,-408.5 0,-408.5 0,-243.5 0,-243.5 0,-237.5 6,-231.5 12,-231.5"/>
<text text-anchor="start" x="108.5" y="-406.6" font-family="monospace" font-size="8.00">0x80a46b0</text>
<text text-anchor="start" x="160.5" y="-406.6" font-family="monospace" font-size="8.00">(0x80a46b0)</text>
<text text-anchor="start" x="222.5" y="-407.6" font-family="monospace" font-weight="bold" font-size="8.00">main</text>
<polyline fill="none" stroke="black" points="0,-397.5 353,-397.5 "/>
<text text-anchor="start" x="11.5" y="-384.1" font-family="monospace" font-size="8.00">0x080a46b0: </text>
<text text-anchor="start" x="79.5" y="-384.1" font-family="monospace" font-size="8.00">lea</text>
<text text-anchor="start" x="105.5" y="-384.1" font-family="monospace" font-size="8.00">ecx, [esp + 4]</text>
<text text-anchor="start" x="11.5" y="-371.1" font-family="monospace" font-size="8.00">0x080a46b4: </text>
<text text-anchor="start" x="79.5" y="-371.1" font-family="monospace" font-size="8.00">and</text>
<text text-anchor="start" x="105.5" y="-371.1" font-family="monospace" font-size="8.00">esp, 0xfffffff0</text>
<text text-anchor="start" x="11.5" y="-358.1" font-family="monospace" font-size="8.00">0x080a46b7: </text>
<text text-anchor="start" x="79.5" y="-358.1" font-family="monospace" font-size="8.00">push</text>
<text text-anchor="start" x="105.5" y="-358.1" font-family="monospace" font-size="8.00">dword ptr [ecx &#45; 4]</text>
<text text-anchor="start" x="11.5" y="-345.1" font-family="monospace" font-size="8.00">0x080a46ba: </text>
<text text-anchor="start" x="79.5" y="-345.1" font-family="monospace" font-size="8.00">push</text>
<text text-anchor="start" x="105.5" y="-345.1" font-family="monospace" font-size="8.00">ebp</text>
<text text-anchor="start" x="11.5" y="-332.1" font-family="monospace" font-size="8.00">0x080a46bb: </text>
<text text-anchor="start" x="79.5" y="-332.1" font-family="monospace" font-size="8.00">mov</text>
<text text-anchor="start" x="105.5" y="-332.1" font-family="monospace" font-size="8.00">ebp, esp</text>
<text text-anchor="start" x="11.5" y="-319.1" font-family="monospace" font-size="8.00">0x080a46bd: </text>
<text text-anchor="start" x="79.5" y="-319.1" font-family="monospace" font-size="8.00">push</text>
<text text-anchor="start" x="105.5" y="-319.1" font-family="monospace" font-size="8.00">ecx</text>
<text text-anchor="start" x="11.5" y="-306.1" font-family="monospace" font-size="8.00">0x080a46be: </text>
<text text-anchor="start" x="79.5" y="-306.1" font-family="monospace" font-size="8.00">sub</text>
<text text-anchor="start" x="105.5" y="-306.1" font-family="monospace" font-size="8.00">esp, 0x14</text>
<text text-anchor="start" x="11.5" y="-293.1" font-family="monospace" font-size="8.00">0x080a46c1: </text>
<text text-anchor="start" x="79.5" y="-293.1" font-family="monospace" font-size="8.00">mov</text>
<text text-anchor="start" x="105.5" y="-293.1" font-family="monospace" font-size="8.00">eax, dword ptr [ecx + 4]</text>
<text text-anchor="start" x="11.5" y="-280.1" font-family="monospace" font-size="8.00">0x080a46c4: </text>
<text text-anchor="start" x="79.5" y="-280.1" font-family="monospace" font-size="8.00">mov</text>
<text text-anchor="start" x="105.5" y="-280.1" font-family="monospace" font-size="8.00">edx, dword ptr [ecx]</text>
<text text-anchor="start" x="11.5" y="-267.1" font-family="monospace" font-size="8.00">0x080a46c6: </text>
<text text-anchor="start" x="79.5" y="-267.1" font-family="monospace" font-size="8.00">mov</text>
<text text-anchor="start" x="105.5" y="-267.1" font-family="monospace" font-size="8.00">dword ptr [esp + 4], eax</text>
<text text-anchor="start" x="11.5" y="-254.1" font-family="monospace" font-size="8.00">0x080a46ca: </text>
<text text-anchor="start" x="79.5" y="-254.1" font-family="monospace" font-size="8.00">mov</text>
<text text-anchor="start" x="105.5" y="-254.1" font-family="monospace" font-size="8.00">dword ptr [esp], edx</text>
<text text-anchor="start" x="11.5" y="-241.1" font-family="monospace" font-size="8.00">0x080a46cd: </text>
<text text-anchor="start" x="79.5" y="-241.1" font-family="monospace" font-size="8.00">call</text>
<text text-anchor="start" x="105.5" y="-241.1" font-family="monospace" font-size="8.00">0x80a4ff0</text>
<text text-anchor="start" x="236.5" y="-241.1" font-family="monospace" font-size="8.00" fill="gray">; _gfortran_set_args</text>
</a>
</g>
</g>
<!-- 17283 -->
<g id="node2" class="node">
<title>17283</title>
<g id="a_node2"><a xlink:href="/api/cfg/0x80a4500" xlink:title="Click to navigate to function 0x80a4500">
<path fill="none" stroke="black" d="M83,-148.5C83,-148.5 270,-148.5 270,-148.5 276,-148.5 282,-154.5 282,-160.5 282,-160.5 282,-182.5 282,-182.5 282,-188.5 276,-194.5 270,-194.5 270,-194.5 83,-194.5 83,-194.5 77,-194.5 71,-188.5 71,-182.5 71,-182.5 71,-160.5 71,-160.5 71,-154.5 77,-148.5 83,-148.5"/>
<text text-anchor="start" x="96.5" y="-180.6" font-family="monospace" font-size="8.00">0x80a46d2</text>
<text text-anchor="start" x="148.5" y="-180.6" font-family="monospace" font-size="8.00">(0x80a46b0)</text>
<text text-anchor="start" x="210.5" y="-181.6" font-family="monospace" font-weight="bold" font-size="8.00">main+0x22</text>
<polyline fill="none" stroke="black" points="71,-171.5 282,-171.5 "/>
<text text-anchor="start" x="82.5" y="-157.6" font-family="monospace" font-size="8.00">0x080a46d2: </text>
<text text-anchor="start" x="150.5" y="-157.6" font-family="monospace" font-size="8.00">call</text>
<text text-anchor="start" x="176.5" y="-157.6" font-family="monospace" font-size="8.00">0x80a4500</text>
<text text-anchor="start" x="228.5" y="-157.6" font-family="monospace" font-size="8.00" fill="gray">; MAIN__</text>
</a>
</g>
</g>
<!-- 93&#45;&gt;17283 -->
<g id="edge1" class="edge">
<title>93&#45;&gt;17283</title>
<path fill="none" stroke="gray" stroke-dasharray="1,5" d="M176.5,-231.46C176.5,-221.94 176.5,-212.81 176.5,-204.68"/>
<polygon fill="gray" stroke="gray" points="180,-204.65 176.5,-194.65 173,-204.65 180,-204.65"/>
</g>
<!-- 22108 -->
<g id="node3" class="node">
<title>22108</title>
<path fill="none" stroke="black" d="M94.5,-0.5C94.5,-0.5 258.5,-0.5 258.5,-0.5 264.5,-0.5 270.5,-6.5 270.5,-12.5 270.5,-12.5 270.5,-99.5 270.5,-99.5 270.5,-105.5 264.5,-111.5 258.5,-111.5 258.5,-111.5 94.5,-111.5 94.5,-111.5 88.5,-111.5 82.5,-105.5 82.5,-99.5 82.5,-99.5 82.5,-12.5 82.5,-12.5 82.5,-6.5 88.5,-0.5 94.5,-0.5"/>
<text text-anchor="start" x="96.5" y="-97.6" font-family="monospace" font-size="8.00">0x80a46d7</text>
<text text-anchor="start" x="148.5" y="-97.6" font-family="monospace" font-size="8.00">(0x80a46b0)</text>
<text text-anchor="start" x="210.5" y="-98.6" font-family="monospace" font-weight="bold" font-size="8.00">main+0x27</text>
<polyline fill="none" stroke="black" points="82.5,-88.5 270.5,-88.5 "/>
<text text-anchor="start" x="93.5" y="-75.1" font-family="monospace" font-size="8.00">0x080a46d7: </text>
<text text-anchor="start" x="161.5" y="-75.1" font-family="monospace" font-size="8.00">add</text>
<text text-anchor="start" x="181.5" y="-75.1" font-family="monospace" font-size="8.00">esp, 0x14</text>
<text text-anchor="start" x="93.5" y="-62.1" font-family="monospace" font-size="8.00">0x080a46da: </text>
<text text-anchor="start" x="161.5" y="-62.1" font-family="monospace" font-size="8.00">xor</text>
<text text-anchor="start" x="181.5" y="-62.1" font-family="monospace" font-size="8.00">eax, eax</text>
<text text-anchor="start" x="93.5" y="-49.1" font-family="monospace" font-size="8.00">0x080a46dc: </text>
<text text-anchor="start" x="161.5" y="-49.1" font-family="monospace" font-size="8.00">pop</text>
<text text-anchor="start" x="181.5" y="-49.1" font-family="monospace" font-size="8.00">ecx</text>
<text text-anchor="start" x="93.5" y="-36.1" font-family="monospace" font-size="8.00">0x080a46dd: </text>
<text text-anchor="start" x="161.5" y="-36.1" font-family="monospace" font-size="8.00">pop</text>
<text text-anchor="start" x="181.5" y="-36.1" font-family="monospace" font-size="8.00">ebp</text>
<text text-anchor="start" x="93.5" y="-23.1" font-family="monospace" font-size="8.00">0x080a46de: </text>
<text text-anchor="start" x="161.5" y="-23.1" font-family="monospace" font-size="8.00">lea</text>
<text text-anchor="start" x="181.5" y="-23.1" font-family="monospace" font-size="8.00">esp, [ecx &#45; 4]</text>
<text text-anchor="start" x="93.5" y="-10.1" font-family="monospace" font-size="8.00">0x080a46e1: </text>
<text text-anchor="start" x="161.5" y="-10.1" font-family="monospace" font-size="8.00">ret</text>
</g>
<!-- 17283&#45;&gt;22108 -->
<g id="edge2" class="edge">
<title>17283&#45;&gt;22108</title>
<path fill="none" stroke="gray" stroke-dasharray="1,5" d="M176.5,-148.35C176.5,-140.49 176.5,-131.21 176.5,-121.63"/>
<polygon fill="gray" stroke="gray" points="180,-121.57 176.5,-111.57 173,-121.57 180,-121.57"/>
</g>
</g>
</svg>
