<?xml version="1.0" encoding="UTF-8" standalone="no"?>
<!DOCTYPE svg PUBLIC "-//W3C//DTD SVG 1.1//EN"
 "http://www.w3.org/Graphics/SVG/1.1/DTD/svg11.dtd">
<!-- Generated by graphviz version 2.44.1 (0)
 -->
<!-- Pages: 1 -->
<svg width="772pt" height="1737pt"
 viewBox="0.00 0.00 771.52 1737.00" xmlns="http://www.w3.org/2000/svg" xmlns:xlink="http://www.w3.org/1999/xlink">
<g id="graph0" class="graph" transform="scale(1 1) rotate(0) translate(4 1733)">
<polygon fill="white" stroke="transparent" points="-4,4 -4,-1733 767.52,-1733 767.52,4 -4,4"/>
<!-- 1 -->
<g id="node1" class="node">
<title>1</title>
<g id="a_node1"><a xlink:href="/api/cfg/0x804a460" xlink:title="Click to navigate to function 0x804a460">
<path fill="none" stroke="black" d="M12,-1513.5C12,-1513.5 366,-1513.5 366,-1513.5 372,-1513.5 378,-1519.5 378,-1525.5 378,-1525.5 378,-1716.5 378,-1716.5 378,-1722.5 372,-1728.5 366,-1728.5 366,-1728.5 12,-1728.5 12,-1728.5 6,-1728.5 0,-1722.5 0,-1716.5 0,-1716.5 0,-1525.5 0,-1525.5 0,-1519.5 6,-1513.5 12,-1513.5"/>
<text text-anchor="start" x="121" y="-1714.6" font-family="monospace" font-size="8.00">0x80486d0</text>
<text text-anchor="start" x="173" y="-1714.6" font-family="monospace" font-size="8.00">(0x80486d0)</text>
<text text-anchor="start" x="235" y="-1715.6" font-family="monospace" font-weight="bold" font-size="8.00">main</text>
<polyline fill="none" stroke="black" points="0,-1705.5 378,-1705.5 "/>
<text text-anchor="start" x="11" y="-1692.1" font-family="monospace" font-size="8.00">0x080486d0: </text>
<text text-anchor="start" x="79" y="-1692.1" font-family="monospace" font-size="8.00">push</text>
<text text-anchor="start" x="105" y="-1692.1" font-family="monospace" font-size="8.00">ebp</text>
<text text-anchor="start" x="11" y="-1679.1" font-family="monospace" font-size="8.00">0x080486d1: </text>
<text text-anchor="start" x="79" y="-1679.1" font-family="monospace" font-size="8.00">mov</text>
<text text-anchor="start" x="105" y="-1679.1" font-family="monospace" font-size="8.00">ebp, esp</text>
<text text-anchor="start" x="11" y="-1666.1" font-family="monospace" font-size="8.00">0x080486d3: </text>
<text text-anchor="start" x="79" y="-1666.1" font-family="monospace" font-size="8.00">push</text>
<text text-anchor="start" x="105" y="-1666.1" font-family="monospace" font-size="8.00">esi</text>
<text text-anchor="start" x="11" y="-1653.1" font-family="monospace" font-size="8.00">0x080486d4: </text>
<text text-anchor="start" x="79" y="-1653.1" font-family="monospace" font-size="8.00">push</text>
<text text-anchor="start" x="105" y="-1653.1" font-family="monospace" font-size="8.00">ebx</text>
<text text-anchor="start" x="11" y="-1640.1" font-family="monospace" font-size="8.00">0x080486d5: </text>
<text text-anchor="start" x="79" y="-1640.1" font-family="monospace" font-size="8.00">mov</text>
<text text-anchor="start" x="105" y="-1640.1" font-family="monospace" font-size="8.00">ebx, 1</text>
<text text-anchor="start" x="11" y="-1627.1" font-family="monospace" font-size="8.00">0x080486da: </text>
<text text-anchor="start" x="79" y="-1627.1" font-family="monospace" font-size="8.00">and</text>
<text text-anchor="start" x="105" y="-1627.1" font-family="monospace" font-size="8.00">esp, 0xfffffff0</text>
<text text-anchor="start" x="11" y="-1614.1" font-family="monospace" font-size="8.00">0x080486dd: </text>
<text text-anchor="start" x="79" y="-1614.1" font-family="monospace" font-size="8.00">sub</text>
<text text-anchor="start" x="105" y="-1614.1" font-family="monospace" font-size="8.00">esp, 0x30</text>
<text text-anchor="start" x="11" y="-1601.1" font-family="monospace" font-size="8.00">0x080486e0: </text>
<text text-anchor="start" x="79" y="-1601.1" font-family="monospace" font-size="8.00">mov</text>
<text text-anchor="start" x="105" y="-1601.1" font-family="monospace" font-size="8.00">eax, dword ptr [ebp + 0xc]</text>
<text text-anchor="start" x="11" y="-1588.1" font-family="monospace" font-size="8.00">0x080486e3: </text>
<text text-anchor="start" x="79" y="-1588.1" font-family="monospace" font-size="8.00">lea</text>
<text text-anchor="start" x="105" y="-1588.1" font-family="monospace" font-size="8.00">esi, [esp + 0x1c]</text>
<text text-anchor="start" x="11" y="-1575.1" font-family="monospace" font-size="8.00">0x080486e7: </text>
<text text-anchor="start" x="79" y="-1575.1" font-family="monospace" font-size="8.00">mov</text>
<text text-anchor="start" x="105" y="-1575.1" font-family="monospace" font-size="8.00">dword ptr [esp + 8], esi</text>
<text text-anchor="start" x="11" y="-1562.1" font-family="monospace" font-size="8.00">0x080486eb: </text>
<text text-anchor="start" x="79" y="-1562.1" font-family="monospace" font-size="8.00">mov</text>
<text text-anchor="start" x="105" y="-1562.1" font-family="monospace" font-size="8.00">dword ptr [esp + 4], eax</text>
<text text-anchor="start" x="11" y="-1549.1" font-family="monospace" font-size="8.00">0x080486ef: </text>
<text text-anchor="start" x="79" y="-1549.1" font-family="monospace" font-size="8.00">mov</text>
<text text-anchor="start" x="105" y="-1549.1" font-family="monospace" font-size="8.00">eax, dword ptr [ebp + 8]</text>
<text text-anchor="start" x="11" y="-1536.1" font-family="monospace" font-size="8.00">0x080486f2: </text>
<text text-anchor="start" x="79" y="-1536.1" font-family="monospace" font-size="8.00">mov</text>
<text text-anchor="start" x="105" y="-1536.1" font-family="monospace" font-size="8.00">dword ptr [esp], eax</text>
<text text-anchor="start" x="11" y="-1523.1" font-family="monospace" font-size="8.00">0x080486f5: </text>
<text text-anchor="start" x="79" y="-1523.1" font-family="monospace" font-size="8.00">call</text>
<text text-anchor="start" x="105" y="-1523.1" font-family="monospace" font-size="8.00">0x804a460</text>
<text text-anchor="start" x="246" y="-1523.1" font-family="monospace" font-size="8.00" fill="gray">; MAIN_parseCommandLine</text>
</a>
</g>
</g>
<!-- 198 -->
<g id="node2" class="node">
<title>198</title>
<g id="a_node2"><a xlink:href="/api/cfg/0x804a5f0" xlink:title="Click to navigate to function 0x804a5f0">
<path fill="none" stroke="black" d="M45.5,-1417.5C45.5,-1417.5 332.5,-1417.5 332.5,-1417.5 338.5,-1417.5 344.5,-1423.5 344.5,-1429.5 344.5,-1429.5 344.5,-1464.5 344.5,-1464.5 344.5,-1470.5 338.5,-1476.5 332.5,-1476.5 332.5,-1476.5 45.5,-1476.5 45.5,-1476.5 39.5,-1476.5 33.5,-1470.5 33.5,-1464.5 33.5,-1464.5 33.5,-1429.5 33.5,-1429.5 33.5,-1423.5 39.5,-1417.5 45.5,-1417.5"/>
<text text-anchor="start" x="109" y="-1462.6" font-family="monospace" font-size="8.00">0x80486fa</text>
<text text-anchor="start" x="161" y="-1462.6" font-family="monospace" font-size="8.00">(0x80486d0)</text>
<text text-anchor="start" x="223" y="-1463.6" font-family="monospace" font-weight="bold" font-size="8.00">main+0x2a</text>
<polyline fill="none" stroke="black" points="33.5,-1453.5 344.5,-1453.5 "/>
<text text-anchor="start" x="45" y="-1440.1" font-family="monospace" font-size="8.00">0x080486fa: </text>
<text text-anchor="start" x="113" y="-1440.1" font-family="monospace" font-size="8.00">mov</text>
<text text-anchor="start" x="139" y="-1440.1" font-family="monospace" font-size="8.00">dword ptr [esp], esi</text>
<text text-anchor="start" x="45" y="-1427.1" font-family="monospace" font-size="8.00">0x080486fd: </text>
<text text-anchor="start" x="113" y="-1427.1" font-family="monospace" font-size="8.00">call</text>
<text text-anchor="start" x="139" y="-1427.1" font-family="monospace" font-size="8.00">0x804a5f0</text>
<text text-anchor="start" x="249" y="-1427.1" font-family="monospace" font-size="8.00" fill="gray">; MAIN_printInfo</text>
</a>
</g>
</g>
<!-- 1&#45;&gt;198 -->
<g id="edge1" class="edge">
<title>1&#45;&gt;198</title>
<path fill="none" stroke="gray" stroke-dasharray="1,5" d="M189,-1513.03C189,-1503.81 189,-1494.94 189,-1486.87"/>
<polygon fill="gray" stroke="gray" points="192.5,-1486.76 189,-1476.76 185.5,-1486.76 192.5,-1486.76"/>
</g>
<!-- 199 -->
<g id="node3" class="node">
<title>199</title>
<g id="a_node3"><a xlink:href="/api/cfg/0x804a700" xlink:title="Click to navigate to function 0x804a700">
<path fill="none" stroke="black" d="M43,-1321.5C43,-1321.5 335,-1321.5 335,-1321.5 341,-1321.5 347,-1327.5 347,-1333.5 347,-1333.5 347,-1368.5 347,-1368.5 347,-1374.5 341,-1380.5 335,-1380.5 335,-1380.5 43,-1380.5 43,-1380.5 37,-1380.5 31,-1374.5 31,-1368.5 31,-1368.5 31,-1333.5 31,-1333.5 31,-1327.5 37,-1321.5 43,-1321.5"/>
<text text-anchor="start" x="109" y="-1366.6" font-family="monospace" font-size="8.00">0x8048702</text>
<text text-anchor="start" x="161" y="-1366.6" font-family="monospace" font-size="8.00">(0x80486d0)</text>
<text text-anchor="start" x="223" y="-1367.6" font-family="monospace" font-weight="bold" font-size="8.00">main+0x32</text>
<polyline fill="none" stroke="black" points="31,-1357.5 347,-1357.5 "/>
<text text-anchor="start" x="42" y="-1344.1" font-family="monospace" font-size="8.00">0x08048702: </text>
<text text-anchor="start" x="110" y="-1344.1" font-family="monospace" font-size="8.00">mov</text>
<text text-anchor="start" x="136" y="-1344.1" font-family="monospace" font-size="8.00">dword ptr [esp], esi</text>
<text text-anchor="start" x="42" y="-1331.1" font-family="monospace" font-size="8.00">0x08048705: </text>
<text text-anchor="start" x="110" y="-1331.1" font-family="monospace" font-size="8.00">call</text>
<text text-anchor="start" x="136" y="-1331.1" font-family="monospace" font-size="8.00">0x804a700</text>
<text text-anchor="start" x="246" y="-1331.1" font-family="monospace" font-size="8.00" fill="gray">; MAIN_initialize</text>
</a>
</g>
</g>
<!-- 198&#45;&gt;199 -->
<g id="edge2" class="edge">
<title>198&#45;&gt;199</title>
<path fill="none" stroke="gray" stroke-dasharray="1,5" d="M189,-1417.29C189,-1408.9 189,-1399.6 189,-1390.71"/>
<polygon fill="gray" stroke="gray" points="192.5,-1390.54 189,-1380.54 185.5,-1390.54 192.5,-1390.54"/>
</g>
<!-- 244 -->
<g id="node4" class="node">
<title>244</title>
<path fill="none" stroke="black" d="M70,-1212.5C70,-1212.5 308,-1212.5 308,-1212.5 314,-1212.5 320,-1218.5 320,-1224.5 320,-1224.5 320,-1272.5 320,-1272.5 320,-1278.5 314,-1284.5 308,-1284.5 308,-1284.5 70,-1284.5 70,-1284.5 64,-1284.5 58,-1278.5 58,-1272.5 58,-1272.5 58,-1224.5 58,-1224.5 58,-1218.5 64,-1212.5 70,-1212.5"/>
<text text-anchor="start" x="109" y="-1270.6" font-family="monospace" font-size="8.00">0x804870a</text>
<text text-anchor="start" x="161" y="-1270.6" font-family="monospace" font-size="8.00">(0x80486d0)</text>
<text text-anchor="start" x="223" y="-1271.6" font-family="monospace" font-weight="bold" font-size="8.00">main+0x3a</text>
<polyline fill="none" stroke="black" points="58,-1261.5 320,-1261.5 "/>
<text text-anchor="start" x="69" y="-1247.6" font-family="monospace" font-size="8.00">0x0804870a: </text>
<text text-anchor="start" x="137" y="-1247.6" font-family="monospace" font-size="8.00">mov</text>
<text text-anchor="start" x="163" y="-1247.6" font-family="monospace" font-size="8.00">eax, dword ptr [esp + 0x1c]</text>
<text text-anchor="start" x="69" y="-1234.6" font-family="monospace" font-size="8.00">0x0804870e: </text>
<text text-anchor="start" x="137" y="-1234.6" font-family="monospace" font-size="8.00">test</text>
<text text-anchor="start" x="163" y="-1234.6" font-family="monospace" font-size="8.00">eax, eax</text>
<text text-anchor="start" x="69" y="-1221.6" font-family="monospace" font-size="8.00">0x08048710: </text>
<text text-anchor="start" x="137" y="-1221.6" font-family="monospace" font-size="8.00">jg</text>
<text text-anchor="start" x="163" y="-1221.6" font-family="monospace" font-size="8.00">0x8048721</text>
</g>
<!-- 199&#45;&gt;244 -->
<g id="edge3" class="edge">
<title>199&#45;&gt;244</title>
<path fill="none" stroke="gray" stroke-dasharray="1,5" d="M189,-1321.47C189,-1313.12 189,-1303.78 189,-1294.67"/>
<polygon fill="gray" stroke="gray" points="192.5,-1294.54 189,-1284.54 185.5,-1294.54 192.5,-1294.54"/>
</g>
<!-- 245 -->
<g id="node5" class="node">
<title>245</title>
<path fill="none" stroke="black" d="M14,-1020.5C14,-1020.5 172,-1020.5 172,-1020.5 178,-1020.5 184,-1026.5 184,-1032.5 184,-1032.5 184,-1054.5 184,-1054.5 184,-1060.5 178,-1066.5 172,-1066.5 172,-1066.5 14,-1066.5 14,-1066.5 8,-1066.5 2,-1060.5 2,-1054.5 2,-1054.5 2,-1032.5 2,-1032.5 2,-1026.5 8,-1020.5 14,-1020.5"/>
<text text-anchor="start" x="13" y="-1052.6" font-family="monospace" font-size="8.00">0x8048712</text>
<text text-anchor="start" x="65" y="-1052.6" font-family="monospace" font-size="8.00">(0x80486d0)</text>
<text text-anchor="start" x="127" y="-1053.6" font-family="monospace" font-weight="bold" font-size="8.00">main+0x42</text>
<polyline fill="none" stroke="black" points="2,-1043.5 184,-1043.5 "/>
<text text-anchor="start" x="23" y="-1029.6" font-family="monospace" font-size="8.00">0x08048712: </text>
<text text-anchor="start" x="91" y="-1029.6" font-family="monospace" font-size="8.00">jmp</text>
<text text-anchor="start" x="111" y="-1029.6" font-family="monospace" font-size="8.00">0x8048785</text>
</g>
<!-- 244&#45;&gt;245 -->
<g id="edge4" class="edge">
<title>244&#45;&gt;245</title>
<path fill="none" stroke="red" d="M159.37,-1212.25C151.02,-1201.14 142.46,-1188.49 136,-1176 119.38,-1143.83 107.42,-1103.95 100.4,-1076.6"/>
<polygon fill="red" stroke="red" points="103.77,-1075.63 97.95,-1066.77 96.97,-1077.32 103.77,-1075.63"/>
</g>
<!-- 246 -->
<g id="node7" class="node">
<title>246</title>
<path fill="none" stroke="black" d="M157,-1116.5C157,-1116.5 379,-1116.5 379,-1116.5 385,-1116.5 391,-1122.5 391,-1128.5 391,-1128.5 391,-1163.5 391,-1163.5 391,-1169.5 385,-1175.5 379,-1175.5 379,-1175.5 157,-1175.5 157,-1175.5 151,-1175.5 145,-1169.5 145,-1163.5 145,-1163.5 145,-1128.5 145,-1128.5 145,-1122.5 151,-1116.5 157,-1116.5"/>
<text text-anchor="start" x="188" y="-1161.6" font-family="monospace" font-size="8.00">0x8048721</text>
<text text-anchor="start" x="240" y="-1161.6" font-family="monospace" font-size="8.00">(0x80486d0)</text>
<text text-anchor="start" x="302" y="-1162.6" font-family="monospace" font-weight="bold" font-size="8.00">main+0x51</text>
<polyline fill="none" stroke="black" points="145,-1152.5 391,-1152.5 "/>
<text text-anchor="start" x="156" y="-1139.1" font-family="monospace" font-size="8.00">0x08048721: </text>
<text text-anchor="start" x="224" y="-1139.1" font-family="monospace" font-size="8.00">cmp</text>
<text text-anchor="start" x="244" y="-1139.1" font-family="monospace" font-size="8.00">dword ptr [esp + 0x28], 1</text>
<text text-anchor="start" x="156" y="-1126.1" font-family="monospace" font-size="8.00">0x08048726: </text>
<text text-anchor="start" x="224" y="-1126.1" font-family="monospace" font-size="8.00">je</text>
<text text-anchor="start" x="244" y="-1126.1" font-family="monospace" font-size="8.00">0x8048798</text>
</g>
<!-- 244&#45;&gt;246 -->
<g id="edge5" class="edge">
<title>244&#45;&gt;246</title>
<path fill="none" stroke="green" d="M216.63,-1212.35C223.93,-1203.07 231.82,-1193.03 239.17,-1183.67"/>
<polygon fill="green" stroke="green" points="242.05,-1185.68 245.47,-1175.66 236.54,-1181.36 242.05,-1185.68"/>
</g>
<!-- 247 -->
<g id="node14" class="node">
<title>247</title>
<g id="a_node14"><a xlink:href="/api/cfg/0x804a7b0" xlink:title="Click to navigate to function 0x804a7b0">
<path fill="none" stroke="black" d="M89.5,-148.5C89.5,-148.5 370.5,-148.5 370.5,-148.5 376.5,-148.5 382.5,-154.5 382.5,-160.5 382.5,-160.5 382.5,-195.5 382.5,-195.5 382.5,-201.5 376.5,-207.5 370.5,-207.5 370.5,-207.5 89.5,-207.5 89.5,-207.5 83.5,-207.5 77.5,-201.5 77.5,-195.5 77.5,-195.5 77.5,-160.5 77.5,-160.5 77.5,-154.5 83.5,-148.5 89.5,-148.5"/>
<text text-anchor="start" x="150" y="-193.6" font-family="monospace" font-size="8.00">0x8048785</text>
<text text-anchor="start" x="202" y="-193.6" font-family="monospace" font-size="8.00">(0x80486d0)</text>
<text text-anchor="start" x="264" y="-194.6" font-family="monospace" font-weight="bold" font-size="8.00">main+0xb5</text>
<polyline fill="none" stroke="black" points="77.5,-184.5 382.5,-184.5 "/>
<text text-anchor="start" x="89" y="-171.1" font-family="monospace" font-size="8.00">0x08048785: </text>
<text text-anchor="start" x="157" y="-171.1" font-family="monospace" font-size="8.00">mov</text>
<text text-anchor="start" x="183" y="-171.1" font-family="monospace" font-size="8.00">dword ptr [esp], esi</text>
<text text-anchor="start" x="89" y="-158.1" font-family="monospace" font-size="8.00">0x08048788: </text>
<text text-anchor="start" x="157" y="-158.1" font-family="monospace" font-size="8.00">call</text>
<text text-anchor="start" x="183" y="-158.1" font-family="monospace" font-size="8.00">0x804a7b0</text>
<text text-anchor="start" x="293" y="-158.1" font-family="monospace" font-size="8.00" fill="gray">; MAIN_finalize</text>
</a>
</g>
</g>
<!-- 245&#45;&gt;247 -->
<g id="edge6" class="edge">
<title>245&#45;&gt;247</title>
<path fill="none" stroke="blue" d="M89.56,-1020.34C84.08,-983.08 74,-905.52 74,-839.5 74,-839.5 74,-839.5 74,-375.5 74,-307.08 132.73,-248.65 178.11,-213.7"/>
<polygon fill="blue" stroke="blue" points="180.25,-216.48 186.13,-207.67 176.04,-210.89 180.25,-216.48"/>
</g>
<!-- 253 -->
<g id="node6" class="node">
<title>253</title>
<path fill="none" stroke="black" d="M114,-462.5C114,-462.5 346,-462.5 346,-462.5 352,-462.5 358,-468.5 358,-474.5 358,-474.5 358,-522.5 358,-522.5 358,-528.5 352,-534.5 346,-534.5 346,-534.5 114,-534.5 114,-534.5 108,-534.5 102,-528.5 102,-522.5 102,-522.5 102,-474.5 102,-474.5 102,-468.5 108,-462.5 114,-462.5"/>
<text text-anchor="start" x="150" y="-520.6" font-family="monospace" font-size="8.00">0x8048718</text>
<text text-anchor="start" x="202" y="-520.6" font-family="monospace" font-size="8.00">(0x80486d0)</text>
<text text-anchor="start" x="264" y="-521.6" font-family="monospace" font-weight="bold" font-size="8.00">main+0x48</text>
<polyline fill="none" stroke="black" points="102,-511.5 358,-511.5 "/>
<text text-anchor="start" x="113" y="-497.6" font-family="monospace" font-size="8.00">0x08048718: </text>
<text text-anchor="start" x="181" y="-497.6" font-family="monospace" font-size="8.00">add</text>
<text text-anchor="start" x="201" y="-497.6" font-family="monospace" font-size="8.00">ebx, 1</text>
<text text-anchor="start" x="113" y="-484.6" font-family="monospace" font-size="8.00">0x0804871b: </text>
<text text-anchor="start" x="181" y="-484.6" font-family="monospace" font-size="8.00">cmp</text>
<text text-anchor="start" x="201" y="-484.6" font-family="monospace" font-size="8.00">dword ptr [esp + 0x1c], ebx</text>
<text text-anchor="start" x="113" y="-471.6" font-family="monospace" font-size="8.00">0x0804871f: </text>
<text text-anchor="start" x="181" y="-471.6" font-family="monospace" font-size="8.00">jl</text>
<text text-anchor="start" x="201" y="-471.6" font-family="monospace" font-size="8.00">0x8048785</text>
</g>
<!-- 253&#45;&gt;246 -->
<g id="edge17" class="edge">
<title>253&#45;&gt;246</title>
<path fill="none" stroke="red" d="M230,-534.67C230,-577.42 230,-651.75 230,-715.5 230,-948.5 230,-948.5 230,-948.5 230,-1004.28 244.94,-1067.37 256.09,-1106.67"/>
<polygon fill="red" stroke="red" points="252.75,-1107.74 258.9,-1116.37 259.48,-1105.79 252.75,-1107.74"/>
</g>
<!-- 253&#45;&gt;247 -->
<g id="edge16" class="edge">
<title>253&#45;&gt;247</title>
<path fill="none" stroke="green" d="M230,-462.2C230,-402.18 230,-280.69 230,-218.15"/>
<polygon fill="green" stroke="green" points="233.5,-217.91 230,-207.91 226.5,-217.91 233.5,-217.91"/>
</g>
<!-- 249 -->
<g id="node8" class="node">
<title>249</title>
<g id="a_node8"><a xlink:href="/api/cfg/0x8048e30" xlink:title="Click to navigate to function 0x8048e30">
<path fill="none" stroke="black" d="M277,-789.5C277,-789.5 647,-789.5 647,-789.5 653,-789.5 659,-795.5 659,-801.5 659,-801.5 659,-875.5 659,-875.5 659,-881.5 653,-887.5 647,-887.5 647,-887.5 277,-887.5 277,-887.5 271,-887.5 265,-881.5 265,-875.5 265,-875.5 265,-801.5 265,-801.5 265,-795.5 271,-789.5 277,-789.5"/>
<text text-anchor="start" x="382" y="-873.6" font-family="monospace" font-size="8.00">0x8048728</text>
<text text-anchor="start" x="434" y="-873.6" font-family="monospace" font-size="8.00">(0x80486d0)</text>
<text text-anchor="start" x="496" y="-874.6" font-family="monospace" font-weight="bold" font-size="8.00">main+0x58</text>
<polyline fill="none" stroke="black" points="265,-864.5 659,-864.5 "/>
<text text-anchor="start" x="276" y="-850.6" font-family="monospace" font-size="8.00">0x08048728: </text>
<text text-anchor="start" x="344" y="-850.6" font-family="monospace" font-size="8.00">mov</text>
<text text-anchor="start" x="370" y="-850.6" font-family="monospace" font-size="8.00">eax, dword ptr [0x804d05c]</text>
<text text-anchor="start" x="276" y="-837.6" font-family="monospace" font-size="8.00">0x0804872d: </text>
<text text-anchor="start" x="344" y="-837.6" font-family="monospace" font-size="8.00">mov</text>
<text text-anchor="start" x="370" y="-837.6" font-family="monospace" font-size="8.00">dword ptr [esp + 4], eax</text>
<text text-anchor="start" x="276" y="-824.6" font-family="monospace" font-size="8.00">0x08048731: </text>
<text text-anchor="start" x="344" y="-824.6" font-family="monospace" font-size="8.00">mov</text>
<text text-anchor="start" x="370" y="-824.6" font-family="monospace" font-size="8.00">eax, dword ptr [0x804d060]</text>
<text text-anchor="start" x="276" y="-811.6" font-family="monospace" font-size="8.00">0x08048736: </text>
<text text-anchor="start" x="344" y="-811.6" font-family="monospace" font-size="8.00">mov</text>
<text text-anchor="start" x="370" y="-811.6" font-family="monospace" font-size="8.00">dword ptr [esp], eax</text>
<text text-anchor="start" x="276" y="-798.6" font-family="monospace" font-size="8.00">0x08048739: </text>
<text text-anchor="start" x="344" y="-798.6" font-family="monospace" font-size="8.00">call</text>
<text text-anchor="start" x="370" y="-798.6" font-family="monospace" font-size="8.00">0x8048e30</text>
<text text-anchor="start" x="511" y="-798.6" font-family="monospace" font-size="8.00" fill="gray">; LBM_performStreamCollide</text>
</a>
</g>
</g>
<!-- 246&#45;&gt;249 -->
<g id="edge8" class="edge">
<title>246&#45;&gt;249</title>
<path fill="none" stroke="red" d="M266.59,-1116.42C266.34,-1087.32 269.29,-1041.68 287,-1007 309.67,-962.6 348.86,-923.41 384.42,-894.12"/>
<polygon fill="red" stroke="red" points="386.85,-896.66 392.42,-887.64 382.44,-891.21 386.85,-896.66"/>
</g>
<!-- 248 -->
<g id="node16" class="node">
<title>248</title>
<g id="a_node16"><a xlink:href="/api/cfg/0x8049460" xlink:title="Click to navigate to function 0x8049460">
<path fill="none" stroke="black" d="M308,-1007.5C308,-1007.5 652,-1007.5 652,-1007.5 658,-1007.5 664,-1013.5 664,-1019.5 664,-1019.5 664,-1067.5 664,-1067.5 664,-1073.5 658,-1079.5 652,-1079.5 652,-1079.5 308,-1079.5 308,-1079.5 302,-1079.5 296,-1073.5 296,-1067.5 296,-1067.5 296,-1019.5 296,-1019.5 296,-1013.5 302,-1007.5 308,-1007.5"/>
<text text-anchor="start" x="401" y="-1065.6" font-family="monospace" font-size="8.00">0x8048798</text>
<text text-anchor="start" x="453" y="-1065.6" font-family="monospace" font-size="8.00">(0x80486d0)</text>
<text text-anchor="start" x="515" y="-1066.6" font-family="monospace" font-weight="bold" font-size="8.00">main+0xc8</text>
<polyline fill="none" stroke="black" points="296,-1056.5 664,-1056.5 "/>
<text text-anchor="start" x="307" y="-1042.6" font-family="monospace" font-size="8.00">0x08048798: </text>
<text text-anchor="start" x="375" y="-1042.6" font-family="monospace" font-size="8.00">mov</text>
<text text-anchor="start" x="401" y="-1042.6" font-family="monospace" font-size="8.00">eax, dword ptr [0x804d060]</text>
<text text-anchor="start" x="307" y="-1029.6" font-family="monospace" font-size="8.00">0x0804879d: </text>
<text text-anchor="start" x="375" y="-1029.6" font-family="monospace" font-size="8.00">mov</text>
<text text-anchor="start" x="401" y="-1029.6" font-family="monospace" font-size="8.00">dword ptr [esp], eax</text>
<text text-anchor="start" x="307" y="-1016.6" font-family="monospace" font-size="8.00">0x080487a0: </text>
<text text-anchor="start" x="375" y="-1016.6" font-family="monospace" font-size="8.00">call</text>
<text text-anchor="start" x="401" y="-1016.6" font-family="monospace" font-size="8.00">0x8049460</text>
<text text-anchor="start" x="542" y="-1016.6" font-family="monospace" font-size="8.00" fill="gray">; LBM_handleInOutFlow</text>
</a>
</g>
</g>
<!-- 246&#45;&gt;248 -->
<g id="edge7" class="edge">
<title>246&#45;&gt;248</title>
<path fill="none" stroke="green" d="M328.18,-1116.47C349.58,-1106.33 374.06,-1094.72 397.03,-1083.83"/>
<polygon fill="green" stroke="green" points="398.55,-1086.99 406.09,-1079.54 395.55,-1080.66 398.55,-1086.99"/>
</g>
<!-- 250 -->
<g id="node9" class="node">
<title>250</title>
<g id="a_node9"><a xlink:href="/api/cfg/0x80489d0" xlink:title="Click to navigate to function 0x80489d0">
<path fill="none" stroke="black" d="M295.5,-680.5C295.5,-680.5 628.5,-680.5 628.5,-680.5 634.5,-680.5 640.5,-686.5 640.5,-692.5 640.5,-692.5 640.5,-740.5 640.5,-740.5 640.5,-746.5 634.5,-752.5 628.5,-752.5 628.5,-752.5 295.5,-752.5 295.5,-752.5 289.5,-752.5 283.5,-746.5 283.5,-740.5 283.5,-740.5 283.5,-692.5 283.5,-692.5 283.5,-686.5 289.5,-680.5 295.5,-680.5"/>
<text text-anchor="start" x="383" y="-738.6" font-family="monospace" font-size="8.00">0x804873e</text>
<text text-anchor="start" x="435" y="-738.6" font-family="monospace" font-size="8.00">(0x80486d0)</text>
<text text-anchor="start" x="497" y="-739.6" font-family="monospace" font-weight="bold" font-size="8.00">main+0x6e</text>
<polyline fill="none" stroke="black" points="283.5,-729.5 640.5,-729.5 "/>
<text text-anchor="start" x="295" y="-715.6" font-family="monospace" font-size="8.00">0x0804873e: </text>
<text text-anchor="start" x="363" y="-715.6" font-family="monospace" font-size="8.00">mov</text>
<text text-anchor="start" x="389" y="-715.6" font-family="monospace" font-size="8.00">dword ptr [esp + 4], 0x804d05c</text>
<text text-anchor="start" x="295" y="-702.6" font-family="monospace" font-size="8.00">0x08048746: </text>
<text text-anchor="start" x="363" y="-702.6" font-family="monospace" font-size="8.00">mov</text>
<text text-anchor="start" x="389" y="-702.6" font-family="monospace" font-size="8.00">dword ptr [esp], 0x804d060</text>
<text text-anchor="start" x="295" y="-689.6" font-family="monospace" font-size="8.00">0x0804874d: </text>
<text text-anchor="start" x="363" y="-689.6" font-family="monospace" font-size="8.00">call</text>
<text text-anchor="start" x="389" y="-689.6" font-family="monospace" font-size="8.00">0x80489d0</text>
<text text-anchor="start" x="551" y="-689.6" font-family="monospace" font-size="8.00" fill="gray">; LBM_swapGrids</text>
</a>
</g>
</g>
<!-- 249&#45;&gt;250 -->
<g id="edge11" class="edge">
<title>249&#45;&gt;250</title>
<path fill="none" stroke="gray" stroke-dasharray="1,5" d="M462,-789.38C462,-780.67 462,-771.6 462,-762.97"/>
<polygon fill="gray" stroke="gray" points="465.5,-762.7 462,-752.7 458.5,-762.7 465.5,-762.7"/>
</g>
<!-- 251 -->
<g id="node10" class="node">
<title>251</title>
<path fill="none" stroke="black" d="M383,-584.5C383,-584.5 541,-584.5 541,-584.5 547,-584.5 553,-590.5 553,-596.5 553,-596.5 553,-631.5 553,-631.5 553,-637.5 547,-643.5 541,-643.5 541,-643.5 383,-643.5 383,-643.5 377,-643.5 371,-637.5 371,-631.5 371,-631.5 371,-596.5 371,-596.5 371,-590.5 377,-584.5 383,-584.5"/>
<text text-anchor="start" x="382" y="-629.6" font-family="monospace" font-size="8.00">0x8048752</text>
<text text-anchor="start" x="434" y="-629.6" font-family="monospace" font-size="8.00">(0x80486d0)</text>
<text text-anchor="start" x="496" y="-630.6" font-family="monospace" font-weight="bold" font-size="8.00">main+0x82</text>
<polyline fill="none" stroke="black" points="371,-620.5 553,-620.5 "/>
<text text-anchor="start" x="389" y="-607.1" font-family="monospace" font-size="8.00">0x08048752: </text>
<text text-anchor="start" x="457" y="-607.1" font-family="monospace" font-size="8.00">test</text>
<text text-anchor="start" x="483" y="-607.1" font-family="monospace" font-size="8.00">bl, 0x3f</text>
<text text-anchor="start" x="389" y="-594.1" font-family="monospace" font-size="8.00">0x08048755: </text>
<text text-anchor="start" x="457" y="-594.1" font-family="monospace" font-size="8.00">jne</text>
<text text-anchor="start" x="483" y="-594.1" font-family="monospace" font-size="8.00">0x8048718</text>
</g>
<!-- 250&#45;&gt;251 -->
<g id="edge12" class="edge">
<title>250&#45;&gt;251</title>
<path fill="none" stroke="gray" stroke-dasharray="1,5" d="M462,-680.35C462,-671.72 462,-662.45 462,-653.67"/>
<polygon fill="gray" stroke="gray" points="465.5,-653.66 462,-643.66 458.5,-653.66 465.5,-653.66"/>
</g>
<!-- 251&#45;&gt;253 -->
<g id="edge14" class="edge">
<title>251&#45;&gt;253</title>
<path fill="none" stroke="green" d="M403.46,-584.36C375.48,-570.67 341.53,-554.06 311.11,-539.18"/>
<polygon fill="green" stroke="green" points="312.32,-535.88 301.8,-534.63 309.24,-542.16 312.32,-535.88"/>
</g>
<!-- 252 -->
<g id="node11" class="node">
<title>252</title>
<g id="a_node11"><a xlink:href="/api/cfg/0x80486a0" xlink:title="Click to navigate to function 0x80486a0">
<path fill="none" stroke="black" d="M388,-449.5C388,-449.5 716,-449.5 716,-449.5 722,-449.5 728,-455.5 728,-461.5 728,-461.5 728,-535.5 728,-535.5 728,-541.5 722,-547.5 716,-547.5 716,-547.5 388,-547.5 388,-547.5 382,-547.5 376,-541.5 376,-535.5 376,-535.5 376,-461.5 376,-461.5 376,-455.5 382,-449.5 388,-449.5"/>
<text text-anchor="start" x="472" y="-533.6" font-family="monospace" font-size="8.00">0x8048757</text>
<text text-anchor="start" x="524" y="-533.6" font-family="monospace" font-size="8.00">(0x80486d0)</text>
<text text-anchor="start" x="586" y="-534.6" font-family="monospace" font-weight="bold" font-size="8.00">main+0x87</text>
<polyline fill="none" stroke="black" points="376,-524.5 728,-524.5 "/>
<text text-anchor="start" x="387" y="-510.6" font-family="monospace" font-size="8.00">0x08048757: </text>
<text text-anchor="start" x="455" y="-510.6" font-family="monospace" font-size="8.00">mov</text>
<text text-anchor="start" x="481" y="-510.6" font-family="monospace" font-size="8.00">dword ptr [esp + 8], ebx</text>
<text text-anchor="start" x="387" y="-497.6" font-family="monospace" font-size="8.00">0x0804875b: </text>
<text text-anchor="start" x="455" y="-497.6" font-family="monospace" font-size="8.00">add</text>
<text text-anchor="start" x="481" y="-497.6" font-family="monospace" font-size="8.00">ebx, 1</text>
<text text-anchor="start" x="387" y="-484.6" font-family="monospace" font-size="8.00">0x0804875e: </text>
<text text-anchor="start" x="455" y="-484.6" font-family="monospace" font-size="8.00">mov</text>
<text text-anchor="start" x="481" y="-484.6" font-family="monospace" font-size="8.00">dword ptr [esp + 4], 0x804ac9f</text>
<text text-anchor="start" x="387" y="-471.6" font-family="monospace" font-size="8.00">0x08048766: </text>
<text text-anchor="start" x="455" y="-471.6" font-family="monospace" font-size="8.00">mov</text>
<text text-anchor="start" x="481" y="-471.6" font-family="monospace" font-size="8.00">dword ptr [esp], 1</text>
<text text-anchor="start" x="387" y="-458.6" font-family="monospace" font-size="8.00">0x0804876d: </text>
<text text-anchor="start" x="455" y="-458.6" font-family="monospace" font-size="8.00">call</text>
<text text-anchor="start" x="481" y="-458.6" font-family="monospace" font-size="8.00">0x80486a0</text>
<text text-anchor="start" x="643" y="-458.6" font-family="monospace" font-size="8.00" fill="gray">; __printf_chk</text>
</a>
</g>
</g>
<!-- 251&#45;&gt;252 -->
<g id="edge13" class="edge">
<title>251&#45;&gt;252</title>
<path fill="none" stroke="red" d="M484.71,-584.36C491.7,-575.55 499.64,-565.53 507.56,-555.54"/>
<polygon fill="red" stroke="red" points="510.42,-557.57 513.89,-547.56 504.93,-553.22 510.42,-557.57"/>
</g>
<!-- 254 -->
<g id="node12" class="node">
<title>254</title>
<g id="a_node12"><a xlink:href="/api/cfg/0x8049bb0" xlink:title="Click to navigate to function 0x8049bb0">
<path fill="none" stroke="black" d="M356,-340.5C356,-340.5 716,-340.5 716,-340.5 722,-340.5 728,-346.5 728,-352.5 728,-352.5 728,-400.5 728,-400.5 728,-406.5 722,-412.5 716,-412.5 716,-412.5 356,-412.5 356,-412.5 350,-412.5 344,-406.5 344,-400.5 344,-400.5 344,-352.5 344,-352.5 344,-346.5 350,-340.5 356,-340.5"/>
<text text-anchor="start" x="456" y="-398.6" font-family="monospace" font-size="8.00">0x8048772</text>
<text text-anchor="start" x="508" y="-398.6" font-family="monospace" font-size="8.00">(0x80486d0)</text>
<text text-anchor="start" x="570" y="-399.6" font-family="monospace" font-weight="bold" font-size="8.00">main+0xa2</text>
<polyline fill="none" stroke="black" points="344,-389.5 728,-389.5 "/>
<text text-anchor="start" x="355" y="-375.6" font-family="monospace" font-size="8.00">0x08048772: </text>
<text text-anchor="start" x="423" y="-375.6" font-family="monospace" font-size="8.00">mov</text>
<text text-anchor="start" x="449" y="-375.6" font-family="monospace" font-size="8.00">eax, dword ptr [0x804d060]</text>
<text text-anchor="start" x="355" y="-362.6" font-family="monospace" font-size="8.00">0x08048777: </text>
<text text-anchor="start" x="423" y="-362.6" font-family="monospace" font-size="8.00">mov</text>
<text text-anchor="start" x="449" y="-362.6" font-family="monospace" font-size="8.00">dword ptr [esp], eax</text>
<text text-anchor="start" x="355" y="-349.6" font-family="monospace" font-size="8.00">0x0804877a: </text>
<text text-anchor="start" x="423" y="-349.6" font-family="monospace" font-size="8.00">call</text>
<text text-anchor="start" x="449" y="-349.6" font-family="monospace" font-size="8.00">0x8049bb0</text>
<text text-anchor="start" x="590" y="-349.6" font-family="monospace" font-size="8.00" fill="gray">; LBM_showGridStatistics</text>
</a>
</g>
</g>
<!-- 252&#45;&gt;254 -->
<g id="edge15" class="edge">
<title>252&#45;&gt;254</title>
<path fill="none" stroke="gray" stroke-dasharray="1,5" d="M545.58,-449.38C544.41,-440.57 543.19,-431.41 542.02,-422.68"/>
<polygon fill="gray" stroke="gray" points="545.48,-422.15 540.69,-412.7 538.55,-423.07 545.48,-422.15"/>
</g>
<!-- 255 -->
<g id="node13" class="node">
<title>255</title>
<path fill="none" stroke="black" d="M420,-244.5C420,-244.5 652,-244.5 652,-244.5 658,-244.5 664,-250.5 664,-256.5 664,-256.5 664,-291.5 664,-291.5 664,-297.5 658,-303.5 652,-303.5 652,-303.5 420,-303.5 420,-303.5 414,-303.5 408,-297.5 408,-291.5 408,-291.5 408,-256.5 408,-256.5 408,-250.5 414,-244.5 420,-244.5"/>
<text text-anchor="start" x="457" y="-289.6" font-family="monospace" font-size="8.00">0x804877f</text>
<text text-anchor="start" x="509" y="-289.6" font-family="monospace" font-size="8.00">(0x80486d0)</text>
<text text-anchor="start" x="571" y="-290.6" font-family="monospace" font-weight="bold" font-size="8.00">main+0xaf</text>
<polyline fill="none" stroke="black" points="408,-280.5 664,-280.5 "/>
<text text-anchor="start" x="419" y="-267.1" font-family="monospace" font-size="8.00">0x0804877f: </text>
<text text-anchor="start" x="487" y="-267.1" font-family="monospace" font-size="8.00">cmp</text>
<text text-anchor="start" x="507" y="-267.1" font-family="monospace" font-size="8.00">dword ptr [esp + 0x1c], ebx</text>
<text text-anchor="start" x="419" y="-254.1" font-family="monospace" font-size="8.00">0x08048783: </text>
<text text-anchor="start" x="487" y="-254.1" font-family="monospace" font-size="8.00">jge</text>
<text text-anchor="start" x="507" y="-254.1" font-family="monospace" font-size="8.00">0x8048721</text>
</g>
<!-- 254&#45;&gt;255 -->
<g id="edge18" class="edge">
<title>254&#45;&gt;255</title>
<path fill="none" stroke="gray" stroke-dasharray="1,5" d="M536,-340.35C536,-331.72 536,-322.45 536,-313.67"/>
<polygon fill="gray" stroke="gray" points="539.5,-313.66 536,-303.66 532.5,-313.66 539.5,-313.66"/>
</g>
<!-- 255&#45;&gt;246 -->
<g id="edge20" class="edge">
<title>255&#45;&gt;246</title>
<path fill="none" stroke="green" d="M664.19,-292.9C691.89,-302.61 718.4,-317.42 737,-340 781.83,-394.42 756,-426.99 756,-497.5 756,-948.5 756,-948.5 756,-948.5 756,-1017.61 730.68,-1041.93 673,-1080 629.22,-1108.9 501.72,-1126.06 401.34,-1135.43"/>
<polygon fill="green" stroke="green" points="400.74,-1131.97 391.1,-1136.36 401.38,-1138.94 400.74,-1131.97"/>
</g>
<!-- 255&#45;&gt;247 -->
<g id="edge19" class="edge">
<title>255&#45;&gt;247</title>
<path fill="none" stroke="red" d="M442.94,-244.41C408.15,-233.72 368.44,-221.53 332.81,-210.58"/>
<polygon fill="red" stroke="red" points="333.46,-207.12 322.88,-207.53 331.41,-213.81 333.46,-207.12"/>
</g>
<!-- 257 -->
<g id="node15" class="node">
<title>257</title>
<path fill="none" stroke="black" d="M148,-0.5C148,-0.5 312,-0.5 312,-0.5 318,-0.5 324,-6.5 324,-12.5 324,-12.5 324,-99.5 324,-99.5 324,-105.5 318,-111.5 312,-111.5 312,-111.5 148,-111.5 148,-111.5 142,-111.5 136,-105.5 136,-99.5 136,-99.5 136,-12.5 136,-12.5 136,-6.5 142,-0.5 148,-0.5"/>
<text text-anchor="start" x="150" y="-97.6" font-family="monospace" font-size="8.00">0x804878d</text>
<text text-anchor="start" x="202" y="-97.6" font-family="monospace" font-size="8.00">(0x80486d0)</text>
<text text-anchor="start" x="264" y="-98.6" font-family="monospace" font-weight="bold" font-size="8.00">main+0xbd</text>
<polyline fill="none" stroke="black" points="136,-88.5 324,-88.5 "/>
<text text-anchor="start" x="147" y="-75.1" font-family="monospace" font-size="8.00">0x0804878d: </text>
<text text-anchor="start" x="215" y="-75.1" font-family="monospace" font-size="8.00">lea</text>
<text text-anchor="start" x="235" y="-75.1" font-family="monospace" font-size="8.00">esp, [ebp &#45; 8]</text>
<text text-anchor="start" x="147" y="-62.1" font-family="monospace" font-size="8.00">0x08048790: </text>
<text text-anchor="start" x="215" y="-62.1" font-family="monospace" font-size="8.00">xor</text>
<text text-anchor="start" x="235" y="-62.1" font-family="monospace" font-size="8.00">eax, eax</text>
<text text-anchor="start" x="147" y="-49.1" font-family="monospace" font-size="8.00">0x08048792: </text>
<text text-anchor="start" x="215" y="-49.1" font-family="monospace" font-size="8.00">pop</text>
<text text-anchor="start" x="235" y="-49.1" font-family="monospace" font-size="8.00">ebx</text>
<text text-anchor="start" x="147" y="-36.1" font-family="monospace" font-size="8.00">0x08048793: </text>
<text text-anchor="start" x="215" y="-36.1" font-family="monospace" font-size="8.00">pop</text>
<text text-anchor="start" x="235" y="-36.1" font-family="monospace" font-size="8.00">esi</text>
<text text-anchor="start" x="147" y="-23.1" font-family="monospace" font-size="8.00">0x08048794: </text>
<text text-anchor="start" x="215" y="-23.1" font-family="monospace" font-size="8.00">pop</text>
<text text-anchor="start" x="235" y="-23.1" font-family="monospace" font-size="8.00">ebp</text>
<text text-anchor="start" x="147" y="-10.1" font-family="monospace" font-size="8.00">0x08048795: </text>
<text text-anchor="start" x="215" y="-10.1" font-family="monospace" font-size="8.00">ret</text>
</g>
<!-- 247&#45;&gt;257 -->
<g id="edge9" class="edge">
<title>247&#45;&gt;257</title>
<path fill="none" stroke="gray" stroke-dasharray="1,5" d="M230,-148.26C230,-140.21 230,-131.13 230,-121.88"/>
<polygon fill="gray" stroke="gray" points="233.5,-121.84 230,-111.84 226.5,-121.84 233.5,-121.84"/>
</g>
<!-- 256 -->
<g id="node17" class="node">
<title>256</title>
<path fill="none" stroke="black" d="M395,-924.5C395,-924.5 553,-924.5 553,-924.5 559,-924.5 565,-930.5 565,-936.5 565,-936.5 565,-958.5 565,-958.5 565,-964.5 559,-970.5 553,-970.5 553,-970.5 395,-970.5 395,-970.5 389,-970.5 383,-964.5 383,-958.5 383,-958.5 383,-936.5 383,-936.5 383,-930.5 389,-924.5 395,-924.5"/>
<text text-anchor="start" x="394" y="-956.6" font-family="monospace" font-size="8.00">0x80487a5</text>
<text text-anchor="start" x="446" y="-956.6" font-family="monospace" font-size="8.00">(0x80486d0)</text>
<text text-anchor="start" x="508" y="-957.6" font-family="monospace" font-weight="bold" font-size="8.00">main+0xd5</text>
<polyline fill="none" stroke="black" points="383,-947.5 565,-947.5 "/>
<text text-anchor="start" x="404" y="-933.6" font-family="monospace" font-size="8.00">0x080487a5: </text>
<text text-anchor="start" x="472" y="-933.6" font-family="monospace" font-size="8.00">jmp</text>
<text text-anchor="start" x="492" y="-933.6" font-family="monospace" font-size="8.00">0x8048728</text>
</g>
<!-- 248&#45;&gt;256 -->
<g id="edge10" class="edge">
<title>248&#45;&gt;256</title>
<path fill="none" stroke="gray" stroke-dasharray="1,5" d="M477.77,-1007.5C477.21,-998.74 476.61,-989.39 476.06,-980.77"/>
<polygon fill="gray" stroke="gray" points="479.55,-980.47 475.42,-970.71 472.56,-980.91 479.55,-980.47"/>
</g>
<!-- 256&#45;&gt;249 -->
<g id="edge21" class="edge">
<title>256&#45;&gt;249</title>
<path fill="none" stroke="blue" d="M471.51,-924.33C470.64,-916.51 469.6,-907.31 468.55,-897.9"/>
<polygon fill="blue" stroke="blue" points="472,-897.22 467.4,-887.67 465.04,-898 472,-897.22"/>
</g>
</g>
</svg>
