<?xml version="1.0" encoding="UTF-8" standalone="no"?>
<!DOCTYPE svg PUBLIC "-//W3C//DTD SVG 1.1//EN"
 "http://www.w3.org/Graphics/SVG/1.1/DTD/svg11.dtd">
<!-- Generated by graphviz version 2.44.1 (0)
 -->
<!-- Pages: 1 -->
<svg width="456pt" height="1519pt"
 viewBox="0.00 0.00 455.50 1519.00" xmlns="http://www.w3.org/2000/svg" xmlns:xlink="http://www.w3.org/1999/xlink">
<g id="graph0" class="graph" transform="scale(1 1) rotate(0) translate(4 1515)">
<polygon fill="white" stroke="transparent" points="-4,4 -4,-1515 451.5,-1515 451.5,4 -4,4"/>
<!-- 1009 -->
<g id="node1" class="node">
<title>1009</title>
<g id="a_node1"><a xlink:href="/api/cfg/0x812be10" xlink:title="Click to navigate to function 0x812be10">
<path fill="none" stroke="black" d="M111.5,-1282.5C111.5,-1282.5 397.5,-1282.5 397.5,-1282.5 403.5,-1282.5 409.5,-1288.5 409.5,-1294.5 409.5,-1294.5 409.5,-1498.5 409.5,-1498.5 409.5,-1504.5 403.5,-1510.5 397.5,-1510.5 397.5,-1510.5 111.5,-1510.5 111.5,-1510.5 105.5,-1510.5 99.5,-1504.5 99.5,-1498.5 99.5,-1498.5 99.5,-1294.5 99.5,-1294.5 99.5,-1288.5 105.5,-1282.5 111.5,-1282.5"/>
<text text-anchor="start" x="186.5" y="-1496.6" font-family="monospace" font-size="8.00">0x808b880</text>
<text text-anchor="start" x="238.5" y="-1496.6" font-family="monospace" font-size="8.00">(0x808b880)</text>
<text text-anchor="start" x="300.5" y="-1497.6" font-family="monospace" font-weight="bold" font-size="8.00">main</text>
<polyline fill="none" stroke="black" points="99.5,-1487.5 409.5,-1487.5 "/>
<text text-anchor="start" x="110.5" y="-1473.6" font-family="monospace" font-size="8.00">0x0808b880: </text>
<text text-anchor="start" x="178.5" y="-1473.6" font-family="monospace" font-size="8.00">lea</text>
<text text-anchor="start" x="204.5" y="-1473.6" font-family="monospace" font-size="8.00">ecx, [esp + 4]</text>
<text text-anchor="start" x="110.5" y="-1460.6" font-family="monospace" font-size="8.00">0x0808b884: </text>
<text text-anchor="start" x="178.5" y="-1460.6" font-family="monospace" font-size="8.00">and</text>
<text text-anchor="start" x="204.5" y="-1460.6" font-family="monospace" font-size="8.00">esp, 0xfffffff0</text>
<text text-anchor="start" x="110.5" y="-1447.6" font-family="monospace" font-size="8.00">0x0808b887: </text>
<text text-anchor="start" x="178.5" y="-1447.6" font-family="monospace" font-size="8.00">push</text>
<text text-anchor="start" x="204.5" y="-1447.6" font-family="monospace" font-size="8.00">dword ptr [ecx &#45; 4]</text>
<text text-anchor="start" x="110.5" y="-1434.6" font-family="monospace" font-size="8.00">0x0808b88a: </text>
<text text-anchor="start" x="178.5" y="-1434.6" font-family="monospace" font-size="8.00">mov</text>
<text text-anchor="start" x="204.5" y="-1434.6" font-family="monospace" font-size="8.00">eax, 1</text>
<text text-anchor="start" x="110.5" y="-1421.6" font-family="monospace" font-size="8.00">0x0808b88f: </text>
<text text-anchor="start" x="178.5" y="-1421.6" font-family="monospace" font-size="8.00">push</text>
<text text-anchor="start" x="204.5" y="-1421.6" font-family="monospace" font-size="8.00">ebp</text>
<text text-anchor="start" x="110.5" y="-1408.6" font-family="monospace" font-size="8.00">0x0808b890: </text>
<text text-anchor="start" x="178.5" y="-1408.6" font-family="monospace" font-size="8.00">mov</text>
<text text-anchor="start" x="204.5" y="-1408.6" font-family="monospace" font-size="8.00">ebp, esp</text>
<text text-anchor="start" x="110.5" y="-1395.6" font-family="monospace" font-size="8.00">0x0808b892: </text>
<text text-anchor="start" x="178.5" y="-1395.6" font-family="monospace" font-size="8.00">push</text>
<text text-anchor="start" x="204.5" y="-1395.6" font-family="monospace" font-size="8.00">esi</text>
<text text-anchor="start" x="110.5" y="-1382.6" font-family="monospace" font-size="8.00">0x0808b893: </text>
<text text-anchor="start" x="178.5" y="-1382.6" font-family="monospace" font-size="8.00">push</text>
<text text-anchor="start" x="204.5" y="-1382.6" font-family="monospace" font-size="8.00">ebx</text>
<text text-anchor="start" x="110.5" y="-1369.6" font-family="monospace" font-size="8.00">0x0808b894: </text>
<text text-anchor="start" x="178.5" y="-1369.6" font-family="monospace" font-size="8.00">push</text>
<text text-anchor="start" x="204.5" y="-1369.6" font-family="monospace" font-size="8.00">ecx</text>
<text text-anchor="start" x="110.5" y="-1356.6" font-family="monospace" font-size="8.00">0x0808b895: </text>
<text text-anchor="start" x="178.5" y="-1356.6" font-family="monospace" font-size="8.00">sub</text>
<text text-anchor="start" x="204.5" y="-1356.6" font-family="monospace" font-size="8.00">esp, 0x1c</text>
<text text-anchor="start" x="110.5" y="-1343.6" font-family="monospace" font-size="8.00">0x0808b898: </text>
<text text-anchor="start" x="178.5" y="-1343.6" font-family="monospace" font-size="8.00">mov</text>
<text text-anchor="start" x="204.5" y="-1343.6" font-family="monospace" font-size="8.00">esi, dword ptr [ecx]</text>
<text text-anchor="start" x="110.5" y="-1330.6" font-family="monospace" font-size="8.00">0x0808b89a: </text>
<text text-anchor="start" x="178.5" y="-1330.6" font-family="monospace" font-size="8.00">mov</text>
<text text-anchor="start" x="204.5" y="-1330.6" font-family="monospace" font-size="8.00">ebx, dword ptr [ecx + 4]</text>
<text text-anchor="start" x="110.5" y="-1317.6" font-family="monospace" font-size="8.00">0x0808b89d: </text>
<text text-anchor="start" x="178.5" y="-1317.6" font-family="monospace" font-size="8.00">mov</text>
<text text-anchor="start" x="204.5" y="-1317.6" font-family="monospace" font-size="8.00">dword ptr [0x81c9200], eax</text>
<text text-anchor="start" x="110.5" y="-1304.6" font-family="monospace" font-size="8.00">0x0808b8a2: </text>
<text text-anchor="start" x="178.5" y="-1304.6" font-family="monospace" font-size="8.00">mov</text>
<text text-anchor="start" x="204.5" y="-1304.6" font-family="monospace" font-size="8.00">dword ptr [esp], 0x817a0ac</text>
<text text-anchor="start" x="110.5" y="-1291.6" font-family="monospace" font-size="8.00">0x0808b8a9: </text>
<text text-anchor="start" x="178.5" y="-1291.6" font-family="monospace" font-size="8.00">call</text>
<text text-anchor="start" x="204.5" y="-1291.6" font-family="monospace" font-size="8.00">0x812be10</text>
<text text-anchor="start" x="345.5" y="-1291.6" font-family="monospace" font-size="8.00" fill="gray">; _IO_puts</text>
</a>
</g>
</g>
<!-- 33459 -->
<g id="node2" class="node">
<title>33459</title>
<g id="a_node2"><a xlink:href="/api/cfg/0x812be10" xlink:title="Click to navigate to function 0x812be10">
<path fill="none" stroke="black" d="M111.5,-1186.5C111.5,-1186.5 397.5,-1186.5 397.5,-1186.5 403.5,-1186.5 409.5,-1192.5 409.5,-1198.5 409.5,-1198.5 409.5,-1233.5 409.5,-1233.5 409.5,-1239.5 403.5,-1245.5 397.5,-1245.5 397.5,-1245.5 111.5,-1245.5 111.5,-1245.5 105.5,-1245.5 99.5,-1239.5 99.5,-1233.5 99.5,-1233.5 99.5,-1198.5 99.5,-1198.5 99.5,-1192.5 105.5,-1186.5 111.5,-1186.5"/>
<text text-anchor="start" x="175.5" y="-1231.6" font-family="monospace" font-size="8.00">0x808b8ae</text>
<text text-anchor="start" x="227.5" y="-1231.6" font-family="monospace" font-size="8.00">(0x808b880)</text>
<text text-anchor="start" x="289.5" y="-1232.6" font-family="monospace" font-weight="bold" font-size="8.00">main+0x2e</text>
<polyline fill="none" stroke="black" points="99.5,-1222.5 409.5,-1222.5 "/>
<text text-anchor="start" x="110.5" y="-1209.1" font-family="monospace" font-size="8.00">0x0808b8ae: </text>
<text text-anchor="start" x="178.5" y="-1209.1" font-family="monospace" font-size="8.00">mov</text>
<text text-anchor="start" x="204.5" y="-1209.1" font-family="monospace" font-size="8.00">dword ptr [esp], 0x817a0ec</text>
<text text-anchor="start" x="110.5" y="-1196.1" font-family="monospace" font-size="8.00">0x0808b8b5: </text>
<text text-anchor="start" x="178.5" y="-1196.1" font-family="monospace" font-size="8.00">call</text>
<text text-anchor="start" x="204.5" y="-1196.1" font-family="monospace" font-size="8.00">0x812be10</text>
<text text-anchor="start" x="345.5" y="-1196.1" font-family="monospace" font-size="8.00" fill="gray">; _IO_puts</text>
</a>
</g>
</g>
<!-- 1009&#45;&gt;33459 -->
<g id="edge1" class="edge">
<title>1009&#45;&gt;33459</title>
<path fill="none" stroke="gray" stroke-dasharray="1,5" d="M254.5,-1282.45C254.5,-1273.02 254.5,-1263.98 254.5,-1255.78"/>
<polygon fill="gray" stroke="gray" points="258,-1255.52 254.5,-1245.52 251,-1255.52 258,-1255.52"/>
</g>
<!-- 33460 -->
<g id="node3" class="node">
<title>33460</title>
<g id="a_node3"><a xlink:href="/api/cfg/0x80b7750" xlink:title="Click to navigate to function 0x80b7750">
<path fill="none" stroke="black" d="M145.5,-1103.5C145.5,-1103.5 363.5,-1103.5 363.5,-1103.5 369.5,-1103.5 375.5,-1109.5 375.5,-1115.5 375.5,-1115.5 375.5,-1137.5 375.5,-1137.5 375.5,-1143.5 369.5,-1149.5 363.5,-1149.5 363.5,-1149.5 145.5,-1149.5 145.5,-1149.5 139.5,-1149.5 133.5,-1143.5 133.5,-1137.5 133.5,-1137.5 133.5,-1115.5 133.5,-1115.5 133.5,-1109.5 139.5,-1103.5 145.5,-1103.5"/>
<text text-anchor="start" x="174.5" y="-1135.6" font-family="monospace" font-size="8.00">0x808b8ba</text>
<text text-anchor="start" x="226.5" y="-1135.6" font-family="monospace" font-size="8.00">(0x808b880)</text>
<text text-anchor="start" x="288.5" y="-1136.6" font-family="monospace" font-weight="bold" font-size="8.00">main+0x3a</text>
<polyline fill="none" stroke="black" points="133.5,-1126.5 375.5,-1126.5 "/>
<text text-anchor="start" x="144.5" y="-1112.6" font-family="monospace" font-size="8.00">0x0808b8ba: </text>
<text text-anchor="start" x="212.5" y="-1112.6" font-family="monospace" font-size="8.00">call</text>
<text text-anchor="start" x="238.5" y="-1112.6" font-family="monospace" font-size="8.00">0x80b7750</text>
<text text-anchor="start" x="290.5" y="-1112.6" font-family="monospace" font-size="8.00" fill="gray">; _Z8testrandv</text>
</a>
</g>
</g>
<!-- 33459&#45;&gt;33460 -->
<g id="edge2" class="edge">
<title>33459&#45;&gt;33460</title>
<path fill="none" stroke="gray" stroke-dasharray="1,5" d="M254.5,-1186.35C254.5,-1177.85 254.5,-1168.47 254.5,-1159.76"/>
<polygon fill="gray" stroke="gray" points="258,-1159.55 254.5,-1149.55 251,-1159.55 258,-1159.55"/>
</g>
<!-- 33461 -->
<g id="node4" class="node">
<title>33461</title>
<path fill="none" stroke="black" d="M176.5,-1007.5C176.5,-1007.5 332.5,-1007.5 332.5,-1007.5 338.5,-1007.5 344.5,-1013.5 344.5,-1019.5 344.5,-1019.5 344.5,-1054.5 344.5,-1054.5 344.5,-1060.5 338.5,-1066.5 332.5,-1066.5 332.5,-1066.5 176.5,-1066.5 176.5,-1066.5 170.5,-1066.5 164.5,-1060.5 164.5,-1054.5 164.5,-1054.5 164.5,-1019.5 164.5,-1019.5 164.5,-1013.5 170.5,-1007.5 176.5,-1007.5"/>
<text text-anchor="start" x="175.5" y="-1052.6" font-family="monospace" font-size="8.00">0x808b8bf</text>
<text text-anchor="start" x="227.5" y="-1052.6" font-family="monospace" font-size="8.00">(0x808b880)</text>
<text text-anchor="start" x="289.5" y="-1053.6" font-family="monospace" font-weight="bold" font-size="8.00">main+0x3f</text>
<polyline fill="none" stroke="black" points="164.5,-1043.5 344.5,-1043.5 "/>
<text text-anchor="start" x="181.5" y="-1030.1" font-family="monospace" font-size="8.00">0x0808b8bf: </text>
<text text-anchor="start" x="249.5" y="-1030.1" font-family="monospace" font-size="8.00">test</text>
<text text-anchor="start" x="275.5" y="-1030.1" font-family="monospace" font-size="8.00">eax, eax</text>
<text text-anchor="start" x="181.5" y="-1017.1" font-family="monospace" font-size="8.00">0x0808b8c1: </text>
<text text-anchor="start" x="249.5" y="-1017.1" font-family="monospace" font-size="8.00">jne</text>
<text text-anchor="start" x="275.5" y="-1017.1" font-family="monospace" font-size="8.00">0x808b8e2</text>
</g>
<!-- 33460&#45;&gt;33461 -->
<g id="edge3" class="edge">
<title>33460&#45;&gt;33461</title>
<path fill="none" stroke="gray" stroke-dasharray="1,5" d="M254.5,-1103.42C254.5,-1095.33 254.5,-1085.91 254.5,-1076.79"/>
<polygon fill="gray" stroke="gray" points="258,-1076.7 254.5,-1066.7 251,-1076.7 258,-1076.7"/>
</g>
<!-- 33462 -->
<g id="node5" class="node">
<title>33462</title>
<g id="a_node5"><a xlink:href="/api/cfg/0x812b110" xlink:title="Click to navigate to function 0x812b110">
<path fill="none" stroke="black" d="M12,-911.5C12,-911.5 309,-911.5 309,-911.5 315,-911.5 321,-917.5 321,-923.5 321,-923.5 321,-958.5 321,-958.5 321,-964.5 315,-970.5 309,-970.5 309,-970.5 12,-970.5 12,-970.5 6,-970.5 0,-964.5 0,-958.5 0,-958.5 0,-923.5 0,-923.5 0,-917.5 6,-911.5 12,-911.5"/>
<text text-anchor="start" x="80.5" y="-956.6" font-family="monospace" font-size="8.00">0x808b8c3</text>
<text text-anchor="start" x="132.5" y="-956.6" font-family="monospace" font-size="8.00">(0x808b880)</text>
<text text-anchor="start" x="194.5" y="-957.6" font-family="monospace" font-weight="bold" font-size="8.00">main+0x43</text>
<polyline fill="none" stroke="black" points="0,-947.5 321,-947.5 "/>
<text text-anchor="start" x="11.5" y="-934.1" font-family="monospace" font-size="8.00">0x0808b8c3: </text>
<text text-anchor="start" x="79.5" y="-934.1" font-family="monospace" font-size="8.00">mov</text>
<text text-anchor="start" x="105.5" y="-934.1" font-family="monospace" font-size="8.00">dword ptr [esp], 0x817a12c</text>
<text text-anchor="start" x="11.5" y="-921.1" font-family="monospace" font-size="8.00">0x0808b8ca: </text>
<text text-anchor="start" x="79.5" y="-921.1" font-family="monospace" font-size="8.00">call</text>
<text text-anchor="start" x="105.5" y="-921.1" font-family="monospace" font-size="8.00">0x812b110</text>
<text text-anchor="start" x="246.5" y="-921.1" font-family="monospace" font-size="8.00" fill="gray">; _IO_printf</text>
</a>
</g>
</g>
<!-- 33461&#45;&gt;33462 -->
<g id="edge4" class="edge">
<title>33461&#45;&gt;33462</title>
<path fill="none" stroke="red" d="M225.79,-1007.29C216.49,-997.99 206.07,-987.57 196.33,-977.83"/>
<polygon fill="red" stroke="red" points="198.58,-975.13 189.04,-970.54 193.63,-980.08 198.58,-975.13"/>
</g>
<!-- 33463 -->
<g id="node9" class="node">
<title>33463</title>
<g id="a_node9"><a xlink:href="/api/cfg/0x8088450" xlink:title="Click to navigate to function 0x8088450">
<path fill="none" stroke="black" d="M81.5,-501.5C81.5,-501.5 435.5,-501.5 435.5,-501.5 441.5,-501.5 447.5,-507.5 447.5,-513.5 447.5,-513.5 447.5,-574.5 447.5,-574.5 447.5,-580.5 441.5,-586.5 435.5,-586.5 435.5,-586.5 81.5,-586.5 81.5,-586.5 75.5,-586.5 69.5,-580.5 69.5,-574.5 69.5,-574.5 69.5,-513.5 69.5,-513.5 69.5,-507.5 75.5,-501.5 81.5,-501.5"/>
<text text-anchor="start" x="178.5" y="-572.6" font-family="monospace" font-size="8.00">0x808b8e2</text>
<text text-anchor="start" x="230.5" y="-572.6" font-family="monospace" font-size="8.00">(0x808b880)</text>
<text text-anchor="start" x="292.5" y="-573.6" font-family="monospace" font-weight="bold" font-size="8.00">main+0x62</text>
<polyline fill="none" stroke="black" points="69.5,-563.5 447.5,-563.5 "/>
<text text-anchor="start" x="80.5" y="-550.1" font-family="monospace" font-size="8.00">0x0808b8e2: </text>
<text text-anchor="start" x="148.5" y="-550.1" font-family="monospace" font-size="8.00">mov</text>
<text text-anchor="start" x="174.5" y="-550.1" font-family="monospace" font-size="8.00">dword ptr [esp + 8], ebx</text>
<text text-anchor="start" x="80.5" y="-537.1" font-family="monospace" font-size="8.00">0x0808b8e6: </text>
<text text-anchor="start" x="148.5" y="-537.1" font-family="monospace" font-size="8.00">mov</text>
<text text-anchor="start" x="174.5" y="-537.1" font-family="monospace" font-size="8.00">dword ptr [esp + 4], esi</text>
<text text-anchor="start" x="80.5" y="-524.1" font-family="monospace" font-size="8.00">0x0808b8ea: </text>
<text text-anchor="start" x="148.5" y="-524.1" font-family="monospace" font-size="8.00">mov</text>
<text text-anchor="start" x="174.5" y="-524.1" font-family="monospace" font-size="8.00">dword ptr [esp], 0x81c7860</text>
<text text-anchor="start" x="80.5" y="-511.1" font-family="monospace" font-size="8.00">0x0808b8f1: </text>
<text text-anchor="start" x="148.5" y="-511.1" font-family="monospace" font-size="8.00">call</text>
<text text-anchor="start" x="174.5" y="-511.1" font-family="monospace" font-size="8.00">0x8088450</text>
<text text-anchor="start" x="315.5" y="-511.1" font-family="monospace" font-size="8.00" fill="gray">; _ZN6cEnvir5setupEiPPc</text>
</a>
</g>
</g>
<!-- 33461&#45;&gt;33463 -->
<g id="edge5" class="edge">
<title>33461&#45;&gt;33463</title>
<path fill="none" stroke="green" d="M297.45,-1007.49C309.61,-997.37 321.65,-984.97 329.5,-971 355.67,-924.44 349.5,-905.91 349.5,-852.5 349.5,-852.5 349.5,-852.5 349.5,-754.5 349.5,-696.5 319.79,-636.38 294.33,-595.51"/>
<polygon fill="green" stroke="green" points="297.12,-593.39 288.8,-586.83 291.22,-597.14 297.12,-593.39"/>
</g>
<!-- 82284 -->
<g id="node6" class="node">
<title>82284</title>
<path fill="none" stroke="black" d="M89.5,-828.5C89.5,-828.5 245.5,-828.5 245.5,-828.5 251.5,-828.5 257.5,-834.5 257.5,-840.5 257.5,-840.5 257.5,-862.5 257.5,-862.5 257.5,-868.5 251.5,-874.5 245.5,-874.5 245.5,-874.5 89.5,-874.5 89.5,-874.5 83.5,-874.5 77.5,-868.5 77.5,-862.5 77.5,-862.5 77.5,-840.5 77.5,-840.5 77.5,-834.5 83.5,-828.5 89.5,-828.5"/>
<text text-anchor="start" x="88.5" y="-860.6" font-family="monospace" font-size="8.00">0x808b8cf</text>
<text text-anchor="start" x="140.5" y="-860.6" font-family="monospace" font-size="8.00">(0x808b880)</text>
<text text-anchor="start" x="202.5" y="-861.6" font-family="monospace" font-weight="bold" font-size="8.00">main+0x4f</text>
<polyline fill="none" stroke="black" points="77.5,-851.5 257.5,-851.5 "/>
<text text-anchor="start" x="121.5" y="-837.6" font-family="monospace" font-size="8.00">0x0808b8cf: </text>
<text text-anchor="start" x="189.5" y="-837.6" font-family="monospace" font-size="8.00">nop</text>
</g>
<!-- 33462&#45;&gt;82284 -->
<g id="edge6" class="edge">
<title>33462&#45;&gt;82284</title>
<path fill="none" stroke="gray" stroke-dasharray="1,5" d="M162.79,-911.35C163.47,-902.85 164.22,-893.47 164.92,-884.76"/>
<polygon fill="gray" stroke="gray" points="168.43,-884.8 165.74,-874.55 161.45,-884.24 168.43,-884.8"/>
</g>
<!-- 33465 -->
<g id="node7" class="node">
<title>33465</title>
<g id="a_node7"><a xlink:href="/api/cfg/0x812ea80" xlink:title="Click to navigate to function 0x812ea80">
<path fill="none" stroke="black" d="M36.5,-719.5C36.5,-719.5 306.5,-719.5 306.5,-719.5 312.5,-719.5 318.5,-725.5 318.5,-731.5 318.5,-731.5 318.5,-779.5 318.5,-779.5 318.5,-785.5 312.5,-791.5 306.5,-791.5 306.5,-791.5 36.5,-791.5 36.5,-791.5 30.5,-791.5 24.5,-785.5 24.5,-779.5 24.5,-779.5 24.5,-731.5 24.5,-731.5 24.5,-725.5 30.5,-719.5 36.5,-719.5"/>
<text text-anchor="start" x="91.5" y="-777.6" font-family="monospace" font-size="8.00">0x808b8d0</text>
<text text-anchor="start" x="143.5" y="-777.6" font-family="monospace" font-size="8.00">(0x808b880)</text>
<text text-anchor="start" x="205.5" y="-778.6" font-family="monospace" font-weight="bold" font-size="8.00">main+0x50</text>
<polyline fill="none" stroke="black" points="24.5,-768.5 318.5,-768.5 "/>
<text text-anchor="start" x="35.5" y="-754.6" font-family="monospace" font-size="8.00">0x0808b8d0: </text>
<text text-anchor="start" x="103.5" y="-754.6" font-family="monospace" font-size="8.00">mov</text>
<text text-anchor="start" x="129.5" y="-754.6" font-family="monospace" font-size="8.00">eax, dword ptr [0x81c653c]</text>
<text text-anchor="start" x="35.5" y="-741.6" font-family="monospace" font-size="8.00">0x0808b8d5: </text>
<text text-anchor="start" x="103.5" y="-741.6" font-family="monospace" font-size="8.00">mov</text>
<text text-anchor="start" x="129.5" y="-741.6" font-family="monospace" font-size="8.00">dword ptr [esp], eax</text>
<text text-anchor="start" x="35.5" y="-728.6" font-family="monospace" font-size="8.00">0x0808b8d8: </text>
<text text-anchor="start" x="103.5" y="-728.6" font-family="monospace" font-size="8.00">call</text>
<text text-anchor="start" x="129.5" y="-728.6" font-family="monospace" font-size="8.00">0x812ea80</text>
<text text-anchor="start" x="270.5" y="-728.6" font-family="monospace" font-size="8.00" fill="gray">; fgetc</text>
</a>
</g>
</g>
<!-- 82284&#45;&gt;33465 -->
<g id="edge14" class="edge">
<title>82284&#45;&gt;33465</title>
<path fill="none" stroke="blue" stroke-dasharray="5,2" d="M168.45,-828.22C168.78,-820.33 169.17,-811.15 169.56,-802.03"/>
<polygon fill="blue" stroke="blue" points="173.07,-801.98 170,-791.84 166.07,-801.69 173.07,-801.98"/>
</g>
<!-- 33464 -->
<g id="node8" class="node">
<title>33464</title>
<path fill="none" stroke="black" d="M92.5,-623.5C92.5,-623.5 250.5,-623.5 250.5,-623.5 256.5,-623.5 262.5,-629.5 262.5,-635.5 262.5,-635.5 262.5,-670.5 262.5,-670.5 262.5,-676.5 256.5,-682.5 250.5,-682.5 250.5,-682.5 92.5,-682.5 92.5,-682.5 86.5,-682.5 80.5,-676.5 80.5,-670.5 80.5,-670.5 80.5,-635.5 80.5,-635.5 80.5,-629.5 86.5,-623.5 92.5,-623.5"/>
<text text-anchor="start" x="91.5" y="-668.6" font-family="monospace" font-size="8.00">0x808b8dd</text>
<text text-anchor="start" x="143.5" y="-668.6" font-family="monospace" font-size="8.00">(0x808b880)</text>
<text text-anchor="start" x="205.5" y="-669.6" font-family="monospace" font-weight="bold" font-size="8.00">main+0x5d</text>
<polyline fill="none" stroke="black" points="80.5,-659.5 262.5,-659.5 "/>
<text text-anchor="start" x="101.5" y="-646.1" font-family="monospace" font-size="8.00">0x0808b8dd: </text>
<text text-anchor="start" x="169.5" y="-646.1" font-family="monospace" font-size="8.00">cmp</text>
<text text-anchor="start" x="189.5" y="-646.1" font-family="monospace" font-size="8.00">eax, 0xa</text>
<text text-anchor="start" x="101.5" y="-633.1" font-family="monospace" font-size="8.00">0x0808b8e0: </text>
<text text-anchor="start" x="169.5" y="-633.1" font-family="monospace" font-size="8.00">jne</text>
<text text-anchor="start" x="189.5" y="-633.1" font-family="monospace" font-size="8.00">0x808b8d0</text>
</g>
<!-- 33465&#45;&gt;33464 -->
<g id="edge10" class="edge">
<title>33465&#45;&gt;33464</title>
<path fill="none" stroke="gray" stroke-dasharray="1,5" d="M165.03,-719.35C164.7,-710.72 164.66,-701.45 164.91,-692.67"/>
<polygon fill="gray" stroke="gray" points="168.41,-692.8 165.34,-682.66 161.42,-692.5 168.41,-692.8"/>
</g>
<!-- 33464&#45;&gt;33465 -->
<g id="edge9" class="edge">
<title>33464&#45;&gt;33465</title>
<path fill="none" stroke="green" d="M177.66,-682.66C178.14,-690.96 178.33,-700.23 178.22,-709.29"/>
<polygon fill="green" stroke="green" points="174.72,-709.27 177.97,-719.35 181.72,-709.44 174.72,-709.27"/>
</g>
<!-- 33464&#45;&gt;33463 -->
<g id="edge8" class="edge">
<title>33464&#45;&gt;33463</title>
<path fill="none" stroke="red" d="M194.81,-623.33C202.04,-614.44 210.23,-604.37 218.26,-594.49"/>
<polygon fill="red" stroke="red" points="221.06,-596.6 224.65,-586.63 215.63,-592.18 221.06,-596.6"/>
</g>
<!-- 47259 -->
<g id="node10" class="node">
<title>47259</title>
<g id="a_node10"><a xlink:href="/api/cfg/0x8087c30" xlink:title="Click to navigate to function 0x8087c30">
<path fill="none" stroke="black" d="M94.5,-405.5C94.5,-405.5 422.5,-405.5 422.5,-405.5 428.5,-405.5 434.5,-411.5 434.5,-417.5 434.5,-417.5 434.5,-452.5 434.5,-452.5 434.5,-458.5 428.5,-464.5 422.5,-464.5 422.5,-464.5 94.5,-464.5 94.5,-464.5 88.5,-464.5 82.5,-458.5 82.5,-452.5 82.5,-452.5 82.5,-417.5 82.5,-417.5 82.5,-411.5 88.5,-405.5 94.5,-405.5"/>
<text text-anchor="start" x="178.5" y="-450.6" font-family="monospace" font-size="8.00">0x808b8f6</text>
<text text-anchor="start" x="230.5" y="-450.6" font-family="monospace" font-size="8.00">(0x808b880)</text>
<text text-anchor="start" x="292.5" y="-451.6" font-family="monospace" font-weight="bold" font-size="8.00">main+0x76</text>
<polyline fill="none" stroke="black" points="82.5,-441.5 434.5,-441.5 "/>
<text text-anchor="start" x="93.5" y="-428.1" font-family="monospace" font-size="8.00">0x0808b8f6: </text>
<text text-anchor="start" x="161.5" y="-428.1" font-family="monospace" font-size="8.00">mov</text>
<text text-anchor="start" x="187.5" y="-428.1" font-family="monospace" font-size="8.00">dword ptr [esp], 0x81c7860</text>
<text text-anchor="start" x="93.5" y="-415.1" font-family="monospace" font-size="8.00">0x0808b8fd: </text>
<text text-anchor="start" x="161.5" y="-415.1" font-family="monospace" font-size="8.00">call</text>
<text text-anchor="start" x="187.5" y="-415.1" font-family="monospace" font-size="8.00">0x8087c30</text>
<text text-anchor="start" x="328.5" y="-415.1" font-family="monospace" font-size="8.00" fill="gray">; _ZN6cEnvir3runEv</text>
</a>
</g>
</g>
<!-- 33463&#45;&gt;47259 -->
<g id="edge7" class="edge">
<title>33463&#45;&gt;47259</title>
<path fill="none" stroke="gray" stroke-dasharray="1,5" d="M258.5,-501.32C258.5,-492.56 258.5,-483.36 258.5,-474.71"/>
<polygon fill="gray" stroke="gray" points="262,-474.51 258.5,-464.51 255,-474.51 262,-474.51"/>
</g>
<!-- 47260 -->
<g id="node11" class="node">
<title>47260</title>
<g id="a_node11"><a xlink:href="/api/cfg/0x8087c50" xlink:title="Click to navigate to function 0x8087c50">
<path fill="none" stroke="black" d="M81.5,-296.5C81.5,-296.5 435.5,-296.5 435.5,-296.5 441.5,-296.5 447.5,-302.5 447.5,-308.5 447.5,-308.5 447.5,-356.5 447.5,-356.5 447.5,-362.5 441.5,-368.5 435.5,-368.5 435.5,-368.5 81.5,-368.5 81.5,-368.5 75.5,-368.5 69.5,-362.5 69.5,-356.5 69.5,-356.5 69.5,-308.5 69.5,-308.5 69.5,-302.5 75.5,-296.5 81.5,-296.5"/>
<text text-anchor="start" x="178.5" y="-354.6" font-family="monospace" font-size="8.00">0x808b902</text>
<text text-anchor="start" x="230.5" y="-354.6" font-family="monospace" font-size="8.00">(0x808b880)</text>
<text text-anchor="start" x="292.5" y="-355.6" font-family="monospace" font-weight="bold" font-size="8.00">main+0x82</text>
<polyline fill="none" stroke="black" points="69.5,-345.5 447.5,-345.5 "/>
<text text-anchor="start" x="80.5" y="-331.6" font-family="monospace" font-size="8.00">0x0808b902: </text>
<text text-anchor="start" x="148.5" y="-331.6" font-family="monospace" font-size="8.00">mov</text>
<text text-anchor="start" x="174.5" y="-331.6" font-family="monospace" font-size="8.00">dword ptr [esp], 0x81c7860</text>
<text text-anchor="start" x="80.5" y="-318.6" font-family="monospace" font-size="8.00">0x0808b909: </text>
<text text-anchor="start" x="148.5" y="-318.6" font-family="monospace" font-size="8.00">mov</text>
<text text-anchor="start" x="174.5" y="-318.6" font-family="monospace" font-size="8.00">ebx, eax</text>
<text text-anchor="start" x="80.5" y="-305.6" font-family="monospace" font-size="8.00">0x0808b90b: </text>
<text text-anchor="start" x="148.5" y="-305.6" font-family="monospace" font-size="8.00">call</text>
<text text-anchor="start" x="174.5" y="-305.6" font-family="monospace" font-size="8.00">0x8087c50</text>
<text text-anchor="start" x="315.5" y="-305.6" font-family="monospace" font-size="8.00" fill="gray">; _ZN6cEnvir8shutdownEv</text>
</a>
</g>
</g>
<!-- 47259&#45;&gt;47260 -->
<g id="edge11" class="edge">
<title>47259&#45;&gt;47260</title>
<path fill="none" stroke="gray" stroke-dasharray="1,5" d="M258.5,-405.47C258.5,-397.12 258.5,-387.78 258.5,-378.67"/>
<polygon fill="gray" stroke="gray" points="262,-378.54 258.5,-368.54 255,-378.54 262,-378.54"/>
</g>
<!-- 47261 -->
<g id="node12" class="node">
<title>47261</title>
<g id="a_node12"><a xlink:href="/api/cfg/0x812be10" xlink:title="Click to navigate to function 0x812be10">
<path fill="none" stroke="black" d="M115.5,-200.5C115.5,-200.5 401.5,-200.5 401.5,-200.5 407.5,-200.5 413.5,-206.5 413.5,-212.5 413.5,-212.5 413.5,-247.5 413.5,-247.5 413.5,-253.5 407.5,-259.5 401.5,-259.5 401.5,-259.5 115.5,-259.5 115.5,-259.5 109.5,-259.5 103.5,-253.5 103.5,-247.5 103.5,-247.5 103.5,-212.5 103.5,-212.5 103.5,-206.5 109.5,-200.5 115.5,-200.5"/>
<text text-anchor="start" x="178.5" y="-245.6" font-family="monospace" font-size="8.00">0x808b910</text>
<text text-anchor="start" x="230.5" y="-245.6" font-family="monospace" font-size="8.00">(0x808b880)</text>
<text text-anchor="start" x="292.5" y="-246.6" font-family="monospace" font-weight="bold" font-size="8.00">main+0x90</text>
<polyline fill="none" stroke="black" points="103.5,-236.5 413.5,-236.5 "/>
<text text-anchor="start" x="114.5" y="-223.1" font-family="monospace" font-size="8.00">0x0808b910: </text>
<text text-anchor="start" x="182.5" y="-223.1" font-family="monospace" font-size="8.00">mov</text>
<text text-anchor="start" x="208.5" y="-223.1" font-family="monospace" font-size="8.00">dword ptr [esp], 0x817a170</text>
<text text-anchor="start" x="114.5" y="-210.1" font-family="monospace" font-size="8.00">0x0808b917: </text>
<text text-anchor="start" x="182.5" y="-210.1" font-family="monospace" font-size="8.00">call</text>
<text text-anchor="start" x="208.5" y="-210.1" font-family="monospace" font-size="8.00">0x812be10</text>
<text text-anchor="start" x="349.5" y="-210.1" font-family="monospace" font-size="8.00" fill="gray">; _IO_puts</text>
</a>
</g>
</g>
<!-- 47260&#45;&gt;47261 -->
<g id="edge12" class="edge">
<title>47260&#45;&gt;47261</title>
<path fill="none" stroke="gray" stroke-dasharray="1,5" d="M258.5,-296.35C258.5,-287.72 258.5,-278.45 258.5,-269.67"/>
<polygon fill="gray" stroke="gray" points="262,-269.66 258.5,-259.66 255,-269.66 262,-269.66"/>
</g>
<!-- 47262 -->
<g id="node13" class="node">
<title>47262</title>
<path fill="none" stroke="black" d="M145,-0.5C145,-0.5 372,-0.5 372,-0.5 378,-0.5 384,-6.5 384,-12.5 384,-12.5 384,-151.5 384,-151.5 384,-157.5 378,-163.5 372,-163.5 372,-163.5 145,-163.5 145,-163.5 139,-163.5 133,-157.5 133,-151.5 133,-151.5 133,-12.5 133,-12.5 133,-6.5 139,-0.5 145,-0.5"/>
<text text-anchor="start" x="179.5" y="-149.6" font-family="monospace" font-size="8.00">0x808b91c</text>
<text text-anchor="start" x="231.5" y="-149.6" font-family="monospace" font-size="8.00">(0x808b880)</text>
<text text-anchor="start" x="293.5" y="-150.6" font-family="monospace" font-weight="bold" font-size="8.00">main+0x9c</text>
<polyline fill="none" stroke="black" points="133,-140.5 384,-140.5 "/>
<text text-anchor="start" x="144.5" y="-127.1" font-family="monospace" font-size="8.00">0x0808b91c: </text>
<text text-anchor="start" x="212.5" y="-127.1" font-family="monospace" font-size="8.00">xor</text>
<text text-anchor="start" x="232.5" y="-127.1" font-family="monospace" font-size="8.00">ecx, ecx</text>
<text text-anchor="start" x="144.5" y="-114.1" font-family="monospace" font-size="8.00">0x0808b91e: </text>
<text text-anchor="start" x="212.5" y="-114.1" font-family="monospace" font-size="8.00">mov</text>
<text text-anchor="start" x="232.5" y="-114.1" font-family="monospace" font-size="8.00">eax, ebx</text>
<text text-anchor="start" x="144.5" y="-101.1" font-family="monospace" font-size="8.00">0x0808b920: </text>
<text text-anchor="start" x="212.5" y="-101.1" font-family="monospace" font-size="8.00">mov</text>
<text text-anchor="start" x="232.5" y="-101.1" font-family="monospace" font-size="8.00">dword ptr [0x81c9200], ecx</text>
<text text-anchor="start" x="144.5" y="-88.1" font-family="monospace" font-size="8.00">0x0808b926: </text>
<text text-anchor="start" x="212.5" y="-88.1" font-family="monospace" font-size="8.00">add</text>
<text text-anchor="start" x="232.5" y="-88.1" font-family="monospace" font-size="8.00">esp, 0x1c</text>
<text text-anchor="start" x="144.5" y="-75.1" font-family="monospace" font-size="8.00">0x0808b929: </text>
<text text-anchor="start" x="212.5" y="-75.1" font-family="monospace" font-size="8.00">pop</text>
<text text-anchor="start" x="232.5" y="-75.1" font-family="monospace" font-size="8.00">ecx</text>
<text text-anchor="start" x="144.5" y="-62.1" font-family="monospace" font-size="8.00">0x0808b92a: </text>
<text text-anchor="start" x="212.5" y="-62.1" font-family="monospace" font-size="8.00">pop</text>
<text text-anchor="start" x="232.5" y="-62.1" font-family="monospace" font-size="8.00">ebx</text>
<text text-anchor="start" x="144.5" y="-49.1" font-family="monospace" font-size="8.00">0x0808b92b: </text>
<text text-anchor="start" x="212.5" y="-49.1" font-family="monospace" font-size="8.00">pop</text>
<text text-anchor="start" x="232.5" y="-49.1" font-family="monospace" font-size="8.00">esi</text>
<text text-anchor="start" x="144.5" y="-36.1" font-family="monospace" font-size="8.00">0x0808b92c: </text>
<text text-anchor="start" x="212.5" y="-36.1" font-family="monospace" font-size="8.00">pop</text>
<text text-anchor="start" x="232.5" y="-36.1" font-family="monospace" font-size="8.00">ebp</text>
<text text-anchor="start" x="144.5" y="-23.1" font-family="monospace" font-size="8.00">0x0808b92d: </text>
<text text-anchor="start" x="212.5" y="-23.1" font-family="monospace" font-size="8.00">lea</text>
<text text-anchor="start" x="232.5" y="-23.1" font-family="monospace" font-size="8.00">esp, [ecx &#45; 4]</text>
<text text-anchor="start" x="144.5" y="-10.1" font-family="monospace" font-size="8.00">0x0808b930: </text>
<text text-anchor="start" x="212.5" y="-10.1" font-family="monospace" font-size="8.00">ret</text>
</g>
<!-- 47261&#45;&gt;47262 -->
<g id="edge13" class="edge">
<title>47261&#45;&gt;47262</title>
<path fill="none" stroke="gray" stroke-dasharray="1,5" d="M258.5,-200.16C258.5,-192.2 258.5,-183.12 258.5,-173.62"/>
<polygon fill="gray" stroke="gray" points="262,-173.6 258.5,-163.6 255,-173.6 262,-173.6"/>
</g>
</g>
</svg>
