<?xml version="1.0" encoding="UTF-8" standalone="no"?>
<!DOCTYPE svg PUBLIC "-//W3C//DTD SVG 1.1//EN"
 "http://www.w3.org/Graphics/SVG/1.1/DTD/svg11.dtd">
<!-- Generated by graphviz version 2.44.1 (0)
 -->
<!-- Pages: 1 -->
<svg width="345pt" height="333pt"
 viewBox="0.00 0.00 345.00 333.00" xmlns="http://www.w3.org/2000/svg" xmlns:xlink="http://www.w3.org/1999/xlink">
<g id="graph0" class="graph" transform="scale(1 1) rotate(0) translate(4 329)">
<polygon fill="white" stroke="transparent" points="-4,4 -4,-329 341,-329 341,4 -4,4"/>
<!-- 16847 -->
<g id="node1" class="node">
<title>16847</title>
<g id="a_node1"><a xlink:href="/api/cfg/0x82dc070" xlink:title="Click to navigate to function 0x82dc070">
<path fill="none" stroke="black" d="M12,-135.5C12,-135.5 325,-135.5 325,-135.5 331,-135.5 337,-141.5 337,-147.5 337,-147.5 337,-312.5 337,-312.5 337,-318.5 331,-324.5 325,-324.5 325,-324.5 12,-324.5 12,-324.5 6,-324.5 0,-318.5 0,-312.5 0,-312.5 0,-147.5 0,-147.5 0,-141.5 6,-135.5 12,-135.5"/>
<text text-anchor="start" x="100.5" y="-310.6" font-family="monospace" font-size="8.00">0x82dc4e0</text>
<text text-anchor="start" x="152.5" y="-310.6" font-family="monospace" font-size="8.00">(0x82dc4e0)</text>
<text text-anchor="start" x="214.5" y="-311.6" font-family="monospace" font-weight="bold" font-size="8.00">main</text>
<polyline fill="none" stroke="black" points="0,-301.5 337,-301.5 "/>
<text text-anchor="start" x="11.5" y="-288.1" font-family="monospace" font-size="8.00">0x082dc4e0: </text>
<text text-anchor="start" x="79.5" y="-288.1" font-family="monospace" font-size="8.00">lea</text>
<text text-anchor="start" x="105.5" y="-288.1" font-family="monospace" font-size="8.00">ecx, [esp + 4]</text>
<text text-anchor="start" x="11.5" y="-275.1" font-family="monospace" font-size="8.00">0x082dc4e4: </text>
<text text-anchor="start" x="79.5" y="-275.1" font-family="monospace" font-size="8.00">and</text>
<text text-anchor="start" x="105.5" y="-275.1" font-family="monospace" font-size="8.00">esp, 0xfffffff0</text>
<text text-anchor="start" x="11.5" y="-262.1" font-family="monospace" font-size="8.00">0x082dc4e7: </text>
<text text-anchor="start" x="79.5" y="-262.1" font-family="monospace" font-size="8.00">push</text>
<text text-anchor="start" x="105.5" y="-262.1" font-family="monospace" font-size="8.00">dword ptr [ecx &#45; 4]</text>
<text text-anchor="start" x="11.5" y="-249.1" font-family="monospace" font-size="8.00">0x082dc4ea: </text>
<text text-anchor="start" x="79.5" y="-249.1" font-family="monospace" font-size="8.00">push</text>
<text text-anchor="start" x="105.5" y="-249.1" font-family="monospace" font-size="8.00">ebp</text>
<text text-anchor="start" x="11.5" y="-236.1" font-family="monospace" font-size="8.00">0x082dc4eb: </text>
<text text-anchor="start" x="79.5" y="-236.1" font-family="monospace" font-size="8.00">mov</text>
<text text-anchor="start" x="105.5" y="-236.1" font-family="monospace" font-size="8.00">ebp, esp</text>
<text text-anchor="start" x="11.5" y="-223.1" font-family="monospace" font-size="8.00">0x082dc4ed: </text>
<text text-anchor="start" x="79.5" y="-223.1" font-family="monospace" font-size="8.00">push</text>
<text text-anchor="start" x="105.5" y="-223.1" font-family="monospace" font-size="8.00">ecx</text>
<text text-anchor="start" x="11.5" y="-210.1" font-family="monospace" font-size="8.00">0x082dc4ee: </text>
<text text-anchor="start" x="79.5" y="-210.1" font-family="monospace" font-size="8.00">sub</text>
<text text-anchor="start" x="105.5" y="-210.1" font-family="monospace" font-size="8.00">esp, 0x14</text>
<text text-anchor="start" x="11.5" y="-197.1" font-family="monospace" font-size="8.00">0x082dc4f1: </text>
<text text-anchor="start" x="79.5" y="-197.1" font-family="monospace" font-size="8.00">mov</text>
<text text-anchor="start" x="105.5" y="-197.1" font-family="monospace" font-size="8.00">edx, dword ptr [ecx]</text>
<text text-anchor="start" x="11.5" y="-184.1" font-family="monospace" font-size="8.00">0x082dc4f3: </text>
<text text-anchor="start" x="79.5" y="-184.1" font-family="monospace" font-size="8.00">mov</text>
<text text-anchor="start" x="105.5" y="-184.1" font-family="monospace" font-size="8.00">eax, dword ptr [ecx + 4]</text>
<text text-anchor="start" x="11.5" y="-171.1" font-family="monospace" font-size="8.00">0x082dc4f6: </text>
<text text-anchor="start" x="79.5" y="-171.1" font-family="monospace" font-size="8.00">mov</text>
<text text-anchor="start" x="105.5" y="-171.1" font-family="monospace" font-size="8.00">dword ptr [esp], edx</text>
<text text-anchor="start" x="11.5" y="-158.1" font-family="monospace" font-size="8.00">0x082dc4f9: </text>
<text text-anchor="start" x="79.5" y="-158.1" font-family="monospace" font-size="8.00">mov</text>
<text text-anchor="start" x="105.5" y="-158.1" font-family="monospace" font-size="8.00">dword ptr [esp + 4], eax</text>
<text text-anchor="start" x="11.5" y="-145.1" font-family="monospace" font-size="8.00">0x082dc4fd: </text>
<text text-anchor="start" x="79.5" y="-145.1" font-family="monospace" font-size="8.00">call</text>
<text text-anchor="start" x="105.5" y="-145.1" font-family="monospace" font-size="8.00">0x82dc070</text>
<text text-anchor="start" x="236.5" y="-145.1" font-family="monospace" font-size="8.00" fill="gray">; _Z8xsltMainiPPc</text>
</a>
</g>
</g>
<!-- 115031 -->
<g id="node2" class="node">
<title>115031</title>
<path fill="none" stroke="black" d="M86.5,-0.5C86.5,-0.5 250.5,-0.5 250.5,-0.5 256.5,-0.5 262.5,-6.5 262.5,-12.5 262.5,-12.5 262.5,-86.5 262.5,-86.5 262.5,-92.5 256.5,-98.5 250.5,-98.5 250.5,-98.5 86.5,-98.5 86.5,-98.5 80.5,-98.5 74.5,-92.5 74.5,-86.5 74.5,-86.5 74.5,-12.5 74.5,-12.5 74.5,-6.5 80.5,-0.5 86.5,-0.5"/>
<text text-anchor="start" x="88.5" y="-84.6" font-family="monospace" font-size="8.00">0x82dc502</text>
<text text-anchor="start" x="140.5" y="-84.6" font-family="monospace" font-size="8.00">(0x82dc4e0)</text>
<text text-anchor="start" x="202.5" y="-85.6" font-family="monospace" font-weight="bold" font-size="8.00">main+0x22</text>
<polyline fill="none" stroke="black" points="74.5,-75.5 262.5,-75.5 "/>
<text text-anchor="start" x="85.5" y="-61.6" font-family="monospace" font-size="8.00">0x082dc502: </text>
<text text-anchor="start" x="153.5" y="-61.6" font-family="monospace" font-size="8.00">add</text>
<text text-anchor="start" x="173.5" y="-61.6" font-family="monospace" font-size="8.00">esp, 0x14</text>
<text text-anchor="start" x="85.5" y="-48.6" font-family="monospace" font-size="8.00">0x082dc505: </text>
<text text-anchor="start" x="153.5" y="-48.6" font-family="monospace" font-size="8.00">pop</text>
<text text-anchor="start" x="173.5" y="-48.6" font-family="monospace" font-size="8.00">ecx</text>
<text text-anchor="start" x="85.5" y="-35.6" font-family="monospace" font-size="8.00">0x082dc506: </text>
<text text-anchor="start" x="153.5" y="-35.6" font-family="monospace" font-size="8.00">pop</text>
<text text-anchor="start" x="173.5" y="-35.6" font-family="monospace" font-size="8.00">ebp</text>
<text text-anchor="start" x="85.5" y="-22.6" font-family="monospace" font-size="8.00">0x082dc507: </text>
<text text-anchor="start" x="153.5" y="-22.6" font-family="monospace" font-size="8.00">lea</text>
<text text-anchor="start" x="173.5" y="-22.6" font-family="monospace" font-size="8.00">esp, [ecx &#45; 4]</text>
<text text-anchor="start" x="85.5" y="-9.6" font-family="monospace" font-size="8.00">0x082dc50a: </text>
<text text-anchor="start" x="153.5" y="-9.6" font-family="monospace" font-size="8.00">ret</text>
</g>
<!-- 16847&#45;&gt;115031 -->
<g id="edge1" class="edge">
<title>16847&#45;&gt;115031</title>
<path fill="none" stroke="gray" stroke-dasharray="1,5" d="M168.5,-135.31C168.5,-126.33 168.5,-117.41 168.5,-108.92"/>
<polygon fill="gray" stroke="gray" points="172,-108.8 168.5,-98.8 165,-108.8 172,-108.8"/>
</g>
</g>
</svg>
